<?xml version="1.0" encoding="utf-8"?>
<!-- Generator: Adobe Illustrator 16.0.0, SVG Export Plug-In . SVG Version: 6.00 Build 0)  -->
<!DOCTYPE svg PUBLIC "-//W3C//DTD SVG 1.0//EN" "http://www.w3.org/TR/2001/REC-SVG-20010904/DTD/svg10.dtd">
<svg version="1.0" id="Layer_1" xmlns="http://www.w3.org/2000/svg" xmlns:xlink="http://www.w3.org/1999/xlink" x="0px" y="0px"
	 width="406.065px" height="592.299px" viewBox="0 0 406.065 592.299" enable-background="new 0 0 406.065 592.299"
	 xml:space="preserve">
<g id="wales">
	<path fill="#D3D3D3" stroke="#FFFFFF" stroke-width="3.9992" d="M224.566,478.063l-4.293,4.783l-6.498,3.188l-4.416-1.227
		l-7.848,6.5l-0.123,3.311l-6.745,0.859l-9.442-0.736l-4.415-4.904l-3.188-0.246l-4.66-10.914l-5.028,0.859l-0.858,0.857
		l-1.349,2.943l-6.009-0.123l-2.698,1.35l-4.047-2.33l-0.613-2.697l1.839-1.719l3.434,0.492l4.292-2.086l-3.679-0.367l-1.104-1.471
		l-4.905,0.734l-2.575-3.924l0.368-3.311l-3.065,1.961l-9.198-0.121l-1.226,1.104l-1.594,4.17l-2.943,1.225l-3.065-0.734
		l-4.169,3.801l-3.924-2.697l-2.208-3.066l3.924-2.084l-6.009-0.982l-0.613,2.207l-3.434-3.678l2.453-1.961l3.434-0.492v-3.434
		l-3.065-3.188l-4.66,0.613l-0.981-1.473l0.123-1.963l9.32-3.922l0.49-3.803l3.189-0.613l1.716,1.963l2.821-1.596l3.434,0.613
		l2.453-3.432l1.472-3.066l2.575,0.734l0.735-1.225l6.009-0.123l7.48-5.396l5.886-2.697l3.679-4.416l4.047-11.281l-0.368-3.68
		l-3.311-5.518l3.802-5.027l0.613-2.33l-3.801-5.15l0.613-2.699l-0.613-3.555l3.188-2.209l-12.999,1.473l-5.028,3.924l0.123,2.453
		l-1.839,1.227l-3.066-2.576l-6.131,1.963l-1.104-0.613l8.706-9.689l1.962-0.367l8.339-6.254l0.123-6.377l-3.924-2.697l-4.169-5.396
		l-2.452-0.244l-3.679-5.15l4.782-0.859l0.736-5.027l11.037-0.98l1.594,4.781l1.717,3.434l6.622-0.121l-3.924,5.395l6.5-1.104
		l6.5-2.33l-0.368-3.557l4.415,2.33l5.519,0.736l12.018-4.17l6.377,5.764l20.798,11.723"/>
</g>
<g id="scotland" transform="matrix(2.16104, 0, 0, 2.16104, -714.396, -978.943)">
	<path id="path2470" fill="#D3D3D3" stroke="#FFFFFF" stroke-width="1.8506" d="M423.694,453.519l0.936,1.594l-0.354,0.797
		l-3.908-1.379l-3.605,1.227l-5.502,0.658l-3.681,0.797l-3.036-1.67l-1.809,0.873l-1.885-0.873l-3.099-1.948l-1.227,1.227
		l-1.455,2.897l2.024,2.239l-1.872,0.506l-1.012,0.797l1.012,3.327l-3.326,0.86l-2.1,0.43l1.594,2.529l0.645,1.809h-1.657
		l-1.809-0.354l2.897,3.036l2.302,2.529l-3.541,0.139l-1.796,1.809l-2.466-1.657l-0.936,1.948l-1.733-0.367l-1.164,0.506v3.112
		l2.1,1.227l-2.239,2.682l2.315,2.302l0.645,1.088l-0.936,0.152l-2.454-1.67l-0.658,1.885l-0.215,2.163l1.442,2.896l3.036,0.215
		l-1.796,2.163l-2.897,1.012l-1.657-1.657l-1.961-1.442l-1.075-2.024l0.43-3.478l0.076-2.53l-2.391-4.263l-1.885,1.518l0.152,2.821
		l1.151,2.163l-0.569,0.734l-1.088-1.088l-1.884-1.809l-1.442-0.582l-0.645,1.164l0.43,3.036l-2.176-2.024l-0.721,1.442l0.367,2.391
		l1.594,1.518l1.151,0.278l1.227-2.087l1.67,1.733l-1.164,1.872l2.896,4.338l2.669-0.354l0.936,1.809l1.303-1.885l1.164,0.645
		l-0.506,1.594l-1.303,2.82l1.733-0.582l1.151-1.012l1.746-2.96l1.442-0.873l1.151,0.076l-2.884,4.338l1.581,1.379l-3.099,1.075
		l-1.594,3.478l3.403,0.139l-2.391,2.53l-1.518,0.721l-4.048,0.215l-1.012,1.669l8.095,1.151l-3.402,0.936l-0.569,0.734l1.657,2.593
		l2.024,0.152l1.67,1.227l5.122-4.048l3.478-3.402l-2.176,3.617l-3.617,7.007l-1.733,4.199l1.012,3.466l-2.239,4.554l-1.657,2.82
		l1.151,1.088l1.227-0.291l-1.809,2.669l1.379,2.024l-2.391,6.071l-0.063,4.199l-1.733,1.733l-0.443,2.884l4.048-0.354l1.012-1.164
		l2.239-11.7l2.821-1.669l-1.809-4.263l-0.645-1.948l0.367-1.884l0.784,0.215l1.884-2.024l-0.645,2.391l-0.582,2.378l0.506,1.885
		l1.809,1.594l3.099,3.466l0.658-2.163l1.088-3.263l0.43-2.239l1.518-0.797l1.809,0.152l2.087,1.303l-1.733,0.063l-1.733-0.354
		l-1.012,1.012l-0.506,2.606l0.721,2.745l-1.303,1.518l3.478,3.175l0.86,0.936l0.076,3.984l-1.733,1.366l-0.721,1.303l-0.873,1.518
		l-1.303,3.693l-2.315,2.302l-0.784,2.466l0.43,4.617l-1.594-3.251l-1.151,0.367l-0.152,1.809l0.443,2.454l2.593,3.036l0.721,3.327
		l1.252,0.708l0.341,0.126l-1.511-5.895l2.202-1.228l2.661,2.064l0.62,0.468l4.703,3.469l1.014-3.975l-1.948-1.96l1.075-0.645
		l2.315,1.657l3.542,2.024l2.1,0.582l2.529-1.366l0.86-2.024l3.327,0.215l0.367-3.757l9.246,0.569l0.657-2.024l2.821-0.936
		l2.087-2.239l2.315-2.53l2.897-4.199l2.024-0.139l3.832-3.327l-2.757-5.856l3.04-3.07l0.716-0.821l1.379-1.307l-1.151-2.176
		l-1.454-1.581l-3.314-0.367l-1.517-1.594l-2.175-0.784l-0.936-1.745l-2.821,0.367l-1.517,2.391l-1.808,0.721l-2.164,0.063
		l-1.884-0.936l-2.382,0.06l-4.488-0.733l-4.253-2.361l0.826-0.745l3.521,1.467l4.462,0.73l2.926-1.515l0.737-1.817l3.619-2.566
		l2.075,1.124l4.056-2.943l-5.155-2.652l1.071-0.916l0.253-1.567l-1.668-0.333l-4.851,2.032l1.673-2.131l4.99-1.112l1.103,0.474
		l3.025-3.2l1.458-2.039l1.194-3.698l2.769-3.032l1.695-4.414l1.152-3.455l0.43-3.112l0.582-1.809l2.099-3.681l2.53-2.682
		l-0.367-1.581l-0.796-3.478l-1.809-2.302l-3.832,0.278l-4.553,0.367l-3.036-0.582l-3.896-0.721l-1.948,0.721l-2.024-0.063
		l-2.973-1.24l-2.529,0.076l-1.366,0.658l-1.809,0.86l-2.745,0.367l-1.518,1.366l-1.67,0.721l-1.227-0.784l-1.303,1.796
		l-1.809,1.809l-0.86-0.139l1.872-2.745l1.809-3.326l4.262-5.489l-1.872,0.215l-3.036,0.86l-1.518,0.152l2.745-2.606l0.076-2.1
		l2.378-1.012l0.367-1.581l3.618-2.821l2.163-1.518l1.303-1.808l1.366-1.227l2.758-1.455l1.733-1.581l0.569-2.315l-1.797-0.582
		l2.088-5.135L423.694,453.519z"/>
	<path id="path3273" fill="#D3D3D3" d="M377.037,493.747l0.051-4.293l1.84-3.015l0.153,1.891l-0.358,1.38l-0.818,0.92l0.204,1.584
		l0.358,1.176l-0.971,0.869L377.037,493.747z"/>
	<path id="path3265" fill="#D3D3D3" d="M349.95,504.53l1.789-2.504l1.482-0.153l0.613,1.687l-2.3,1.942L349.95,504.53z"/>
	<path id="path3259" fill="#D3D3D3" d="M360.172,521.242l-0.358-2.504l0.511-0.46l3.986,0.358l-4.293,2.862L360.172,521.242z"/>
	<path id="path3261" fill="#D3D3D3" d="M363.852,517.614l2.146-1.993l3.424-2.658l-0.562,2.709l-3.373,1.329L363.852,517.614z"/>
	<path id="path3251" fill="#D3D3D3" d="M388.485,555.127l-2.096-2.555l0.614-1.993l-1.022-1.38l0.767-1.789l1.789-1.38l1.686,1.533
		l0.204,2.709l1.124,1.278l-0.664,3.935L388.485,555.127z"/>
	<path id="path3253" fill="#D3D3D3" stroke="#FFFFFF" stroke-width="0.5141" d="M366.049,546.03l1.022-5.213l2.044-0.664
		l4.242-1.585l0.511,2.402l1.176,5.315l-1.84,1.124l-2.964,2.096l-0.869-0.665l0.307-1.022l0.767-0.664l-0.767-1.789l0.511-0.971
		l0.92-1.176l-0.92-0.511l-1.073,0.307l-2.249,2.402L366.049,546.03z"/>
	<path id="path3255" fill="#D3D3D3" stroke="#FFFFFF" stroke-width="0.5141" d="M373.613,539.743l1.431-1.124l0.92-0.46l1.482-0.613
		l-1.533-0.204l0.613-1.738l3.016-2.095l1.789-1.38l0.613,1.227l-1.022,1.277l-1.942,3.373l-3.271,5.52l-1.38-0.664L373.613,539.743
		z"/>
	<path id="path3257" fill="#D3D3D3" d="M369.422,524.871l5.009,0.255l-1.533-1.022l1.533-3.577l-3.578-1.636l0.869-1.891
		l2.453-1.687l1.277,0.716l1.278,2.453l1.227,1.687l2.198,0.102l2.095,1.175l0.613,0.818l-0.664,3.067l-2.504,1.175l-1.635-0.818
		l-6.951,2.249L369.422,524.871z"/>
	<path id="path3263" fill="#D3D3D3" d="M369.576,503.917l2.198,2.811l1.789-2.198l-0.767-1.942h-1.073L369.576,503.917z"/>
	<path id="path3267" fill="#D3D3D3" stroke="#FFFFFF" stroke-width="0.5141" d="M353.885,499.522l-0.869-4.191l1.584-2.249
		l-0.511-1.431v-0.818l1.278-1.226l1.38,1.738l0.869,1.176l0.102,1.686l-1.226,1.635l0.102,4.497L353.885,499.522z"/>
	<path id="path3269" fill="#D3D3D3" stroke="#FFFFFF" stroke-width="0.5141" d="M355.061,489.862l-0.716-0.767l0.307-1.482
		l0.664-0.46l-0.153-1.635l-3.015-1.993l1.789-2.044l4.958-0.153l2.198,1.993l-1.176,2.147l-3.168,4.804l-0.511,0.409l-0.869-1.022
		l-0.511,0.204H355.061z"/>
	<path id="path3271" fill="#D3D3D3" d="M362.42,479.743l-2.3-2.811l2.453-0.767l1.175-0.716l1.533-0.665l-1.942-1.329l-3.424-2.607
		l3.68-0.562l-2.3-1.891l0.051-2.198l1.584-1.993l1.431,0.562l2.811,1.226l-0.562-3.475l4.344-2.657l5.418-3.373l0.716,5.008
		l-1.584,1.891l-1.329,1.993l-0.92,3.424l-0.307,3.322l-2.249,2.453l-2.453,0.256l-0.204,1.022l-1.482,0.204l-0.051,1.38
		L362.42,479.743z"/>
</g>
<path id="lloegr" fill="#FFFFFF" d="M248.217,195.621c0.578-0.596,1.641-0.856,2.258-0.166c4.965,5.011,9.963,9.995,14.959,14.978
	c0.748,0.739,1.357,1.66,1.504,2.722c1.568,10.39,3.18,20.776,4.76,31.166c0.58,2.796,1.719,5.433,2.6,8.141
	c1.342,4.154,2.773,8.278,4.148,12.421c0.586,2.14,2.607,3.345,3.967,4.961c1.984,1.717,3.529,4.038,6.006,5.104
	c6.26,3.1,12.494,6.25,18.752,9.355c0.795,0.382,1.561,0.891,2.018,1.671c3.553,5.671,7.186,11.293,10.766,16.947
	c0.557,0.867,1.049,1.792,1.744,2.563c2.057,1.289,4.291,2.271,6.373,3.521c0.016,0.25,0.045,0.75,0.061,1
	c-1.758,1.354-3.742,2.375-5.506,3.719c4.75,9.328,9.844,18.484,14.709,27.754c0.352,0.537,0.193,1.178,0.164,1.777
	c-3.447,0.102-6.857-0.641-10.283-0.957c2.813,3.443,7.141,4.998,10.6,7.641c0.912,0.768,1.236,1.963,1.719,3.008
	c2.277,5.068,4.58,10.125,6.869,15.189c0.699,1.432,0.186,3.043,0.129,4.551c-0.248,1.762-0.219,3.572-0.623,5.307
	c-0.895,1.447-2.18,2.623-3.283,3.914c-2.471,2.852-5.143,5.531-7.471,8.502c4.221,2.457,8.465,4.889,12.795,7.15
	c1.9-4.01,3.459-8.172,5.244-12.234c0.328-0.746,0.859-1.664,1.824-1.512c6.141-0.016,12.281,0.006,18.422-0.01
	c1.271-0.018,2.512,0.287,3.75,0.533c3.254,0.574,6.508,1.15,9.754,1.771c1.188,0.201,1.992,1.168,2.896,1.875
	c4.016,3.436,8.049,6.85,12.066,10.283c0.582,0.533,1.316,1.049,1.469,1.881c0.863,4.307,1.332,8.684,2.264,12.979
	c0.203,1.848,0.684,3.736,0.254,5.592c-1.217,5.611-2.498,11.209-3.746,16.814c-0.777,2.793-0.984,5.787-2.137,8.449
	c-4.264,4.428-8.736,8.664-12.92,13.172c0.896,0.367,1.818,0.67,2.725,1.025c-0.096,0.578-0.25,1.162-0.725,1.553
	c-1.934,1.916-3.957,3.742-5.959,5.586c-0.863,0.813-2.121,0.771-3.221,0.857c-1.836,0.035-3.664,0.205-5.496,0.236
	c0.357,0.82,1.008,1.568,0.975,2.512c0.01,2.051,0.029,4.104-0.012,6.154c-0.027,1.539-1.387,2.527-2.17,3.717
	c-1.418,1.717-2.559,3.699-4.188,5.219c-2.35,0.84-4.938,0.461-7.352,1.055c1.586,0.713,3.344,0.861,4.975,1.447
	c2.277,0.783,4.52,1.676,6.748,2.59c2.041,0.854,3.176,3.025,5.143,3.941c5.547-0.76,10.992-2.254,16.52-3.188
	c0.711-0.211,1.523,0.248,1.408,1.061c-0.428,1.863-1.662,3.48-1.906,5.383c0.365,3.512,1.676,6.883,1.965,10.402
	c-0.582,0.807-1.498,1.258-2.313,1.783c-2.244,1.344-4.449,2.754-6.668,4.143c-1.793,1.186-4.002,1.295-5.994,1.963
	c-0.791,0.203-1.033,1.084-1.402,1.709c-0.574,1.264-1.357,2.445-1.742,3.787c-0.029,1.479,0.506,2.939,0.199,4.422
	c-2.801,0.178-5.541-0.693-8.322-0.697c-2.311,1.162-3.906,3.42-6.252,4.539c-3.418,1.098-6.887,2.039-10.313,3.113
	c-1.387,0.373-2.018,1.793-2.906,2.781c-1.117,1.24-1.916,2.822-3.334,3.75c-1.992-0.193-3.814-1.152-5.738-1.654
	c-4.48-1.516-8.99-2.943-13.479-4.438c-0.859-0.299-1.787-0.234-2.664-0.063c-6.338,1.273-12.732,2.264-19.068,3.541
	c-0.566,1.135-0.945,2.354-1.551,3.469c-0.281,0.576-1.063,0.924-1.625,0.531c-1.932-0.988-3.668-2.318-5.555-3.389
	c-0.344-0.215-0.715-0.32-1.111-0.316c-3.129-0.064-6.262,0.191-9.379,0.17c-2.295-1.242-4.145-3.182-6.322-4.623
	c0.225,1.807-1.031,3.287-2.328,4.365c-2.248,0.824-4.703,0.916-6.957,1.715c-0.953,0.832-1.002,2.371-2.131,3.033
	c-1.705,0.162-3.248-0.893-4.914-0.959c-3.119,1.443-6.639,1.316-9.955,1.977c-0.408,1.98-0.311,4.025-0.725,6.006
	c-0.084,0.553-0.775,0.766-1.264,0.695c-4.58-0.5-9.133-1.232-13.711-1.756c-1.766-0.184-3.514-0.686-5.295-0.627
	c-0.928,1.07-0.631,2.848-1.662,3.918c-0.662,0.25-1.23-0.27-1.77-0.564c-4.33-2.871-8.645-5.766-12.992-8.609
	c-0.939-0.563-2.08-0.531-3.125-0.721c-1.279-0.127-2.578-0.572-3.859-0.281c-2.42,0.785-4.645,2.127-7.15,2.652
	c-1.739,0.367-3.458,0.816-5.19,1.209c-2.159,0.268-2.859,2.684-4.501,3.777c-1.297,0.387-2.677,0.338-4.009,0.543
	c-0.841,1.924-1.859,3.775-2.573,5.752c-0.384,0.969,0.685,1.773,0.579,2.729c-0.615,0.953-1.66,1.494-2.495,2.229
	c0.7,0.82,1.392,1.648,2.027,2.525c-0.591,1.703-0.914,3.619-2.074,5.047c-1.318,0.742-2.868,0.912-4.264,1.477
	c-0.123,1.877,0.744,3.783,0.223,5.619c-0.792,0.574-1.802,0.131-2.67,0.029c-2.467-0.578-4.973-0.992-7.42-1.645
	c-1.794-0.658-2.181-2.873-3.661-3.906c-2.347-0.713-4.843-0.723-7.212-1.336c-0.654-0.188-1.084-0.746-1.563-1.184
	c-0.789,0.736-1.538,1.6-2.583,1.971c-2.071-1.037-3.144-3.344-5.138-4.492c-1.735-0.111-3.488-0.111-5.223-0.002
	c-1.503,0.551-2.473,2.088-4.061,2.465c-2.296,0.139-4.569-0.359-6.852-0.525c-0.502-0.014-1.181-0.201-1.476,0.357
	c-1.367,2.234-1.819,5.012-3.527,7.029c-1.881,0.699-3.978,0.572-5.85,1.305c-1.336,1.141-1.535,3.201-3.031,4.213
	c-1.488,0.676-3.1,1.023-4.615,1.637c1.066,1.098,2.317,2.006,3.3,3.191c-0.725,1.277-1.988,2.066-3.084,2.99
	c-1.295,1.006-2.494,2.139-3.837,3.084c-0.623,0.545-1.37-0.09-1.695-0.65c-1.525-2.473-2.83-5.074-4.33-7.561
	c-0.339-0.617-1.03-0.861-1.631-1.131c-1.522-0.625-3.003-1.369-4.603-1.781c-1.37,1.492-2.104,3.914-4.345,4.301
	c-1.473,0.354-2.938,0.926-4.469,0.908c-1.156-0.736-1.987-1.924-2.682-3.082c-0.112-0.955,0.331-1.848,0.586-2.74
	c0.476-1.318,0.744-2.727,1.438-3.953c1.399-1.021,3.087-1.521,4.641-2.248c1.553-0.609,3.004-1.504,4.646-1.861
	c1.095,0.131,1.868,1.07,2.796,1.594c5.247-4.906,10.394-9.916,15.649-14.813c0.318-0.385,0.829-0.715,0.867-1.246
	c0.15-2.092-0.15-4.205,0.208-6.281c2.41-0.703,5.016-0.707,7.283-1.871c1.441-0.695,3.019-1.143,4.359-2.021
	c0.639-1.467-0.176-3.459,1.163-4.613c2.668-2.045,5.474-3.902,8.167-5.914c0.403-0.291,0.72-0.729,0.672-1.244
	c0.037-2.275,0.228-4.545,0.157-6.818c-0.11-2.152,0.887-4.121,1.365-6.168c0.252-0.768,0.339-1.961,1.349-2.066
	c2.71,0.211,5.256,1.627,7.983,1.625c1.431-1.373,2.965-2.697,4.152-4.289c-0.099-1.555-1.331-2.746-1.692-4.229
	c0.056-1.209,0.64-2.322,1.157-3.391c0.322-0.791,1.211-0.996,1.967-1.117c5.478-0.904,10.959-1.789,16.437-2.695
	c2.652-0.549,5.197,0.674,7.781,1.041c1.083,0.227,2.083-0.906,3.125-0.35c2.058,0.918,3.982,2.115,6.046,3.025
	c0.56,0.277,1.203,0.215,1.806,0.164c4.606-0.613,9.202-1.311,13.817-1.859c0.461-0.072,1.021-0.117,1.262-0.59
	c-0.086-2.033-0.676-4.031-0.559-6.072c0.014-0.488,0.363-0.867,0.645-1.225c3.525-3.803,6.986-7.664,10.516-11.461
	c1.762-2.008,3.699-3.859,5.355-5.961c-0.26-0.453-0.617-0.863-0.748-1.369c-0.252-2.824-0.271-5.66-0.355-8.49
	c-0.018-1.611,0.082-3.238-0.244-4.822c-0.066-0.607-0.68-0.881-1.094-1.223c-2.213-1.512-4.357-3.119-6.57-4.629
	c-1.467-1.188-2.906,0.973-4.477,0.617c-0.344-0.328-0.604-0.729-0.824-1.141c-1.789-3.514-3.619-7.006-5.35-10.547
	c-0.57-0.898-0.193-1.945,0.113-2.857c1.84-5.221,3.672-10.441,5.488-15.67c-3.068-1.771-6.315-3.217-9.418-4.922
	c-0.699-0.277-1.081-1.275-0.375-1.764c2.389-1.875,4.923-3.564,7.294-5.465c-0.941-0.594-2.035-0.898-2.941-1.537
	c-0.582-0.451-0.226-1.17-0.033-1.717c1.549-3.594,3.238-7.133,4.715-10.754c0.328-0.643-0.293-1.131-0.746-1.461
	c-1.541-1.107-3.107-2.178-4.65-3.279c-0.557-0.408-1.174-0.877-1.267-1.611c0.709-2.131,2.032-3.984,2.921-6.039
	c0.375-0.971,1.199-1.732,2.268-1.818c2.953-0.438,5.869-1.205,8.861-1.334c0.916,1.121,1.498,2.455,2.248,3.684
	c0.646-0.24,1.313-0.459,1.908-0.818c0.465-1.111,0.027-2.332-0.135-3.463c-1.256-0.318-2.557-0.479-3.768-0.947
	c-0.895-0.336-0.928-1.441-1.152-2.221c-0.479-1.922-0.596-3.943-1.316-5.793c-1.014-1.066-2.6-1.414-3.666-2.441
	c-0.332-0.414-0.352-1.143,0.107-1.482c0.742-0.744,1.607-1.355,2.344-2.105c-2.371-1.826-4.889-3.453-7.285-5.246
	c-1.071-0.766-1.314-2.143-1.759-3.297c-0.52-1.662-1.265-3.254-1.68-4.945c-0.207-0.635,0.304-1.158,0.837-1.402
	c1.729-0.891,3.572-1.537,5.27-2.494c-0.502-1.816-1.258-3.545-1.895-5.313c-0.258-0.787-0.574-1.705-0.1-2.477
	c1.461-2.766,2.961-5.51,4.422-8.275c0.152-0.387,0.428-0.766,0.385-1.195c-0.621-2.021-2.5-3.58-2.494-5.797
	c-0.029-2.646,0.119-5.293,0.131-7.938c-0.047-1.043,0.967-1.539,1.748-1.953c1.625-0.822,3.27-1.613,4.861-2.504
	c-0.479-2.109-1.813-3.904-2.254-6.025c1.447-1.051,3.105-1.768,4.52-2.869c-0.498-1.164-1.039-2.329-1.879-3.291
	c-1.129,0.779-2.113,2.443-3.678,2.031c-0.844-0.892-1.289-2.059-1.936-3.084c-1.707,2.052-3.037,4.383-4.652,6.502
	c-0.352,0.641-1.421,0.842-1.871,0.205c-1.023-1.236-2.181-2.412-2.905-3.855c-0.057-1.427,0.746-2.729,0.973-4.125
	c-1.094,0.518-2.154,1.127-3.336,1.428c-1.242-1.666-2.108-3.564-3.112-5.372c-3.011-5.53-6.009-11.068-9.025-16.594
	c-0.8-1.368,0.065-2.866,0.434-4.221c0.962-2.797,1.635-5.692,2.694-8.454c1.386-2.595,3.525-4.708,4.95-7.282
	c0.977-2.341,1.746-4.767,2.68-7.126c0.289-0.894,1.234-1.24,1.986-1.649c2.825-1.38,5.618-2.825,8.446-4.198
	c3.162-1.07,5.07-4.009,7.531-6.085c2.863-2.93,6.127-5.48,8.744-8.633c2.705-1.906,4.846-4.482,7.32-6.663
	c2.41-2.397,4.973-4.632,7.373-7.041c1.248-1.274,2.748-2.307,3.822-3.747c-0.162-1.351-1.002-2.506-1.5-3.751
	c-1.236-2.845-2.625-5.621-3.85-8.468c-0.438-0.836,0.311-1.518,0.881-2.021C241.191,201.777,244.703,198.699,248.217,195.621z"/>
<g id="east-midlands">
	<path fill="#D3D3D3" d="M312.445,409.242c0,0,0.246,3.039,0.473,4.17c0.881,0.104,1.771,0.178,2.658,0.271
		c0.086,0.959,0.137,1.92,0.211,2.885c0.887,0.611,1.758,1.246,2.605,1.916c-0.17,1.373-0.209,2.781-0.639,4.109
		c-1.643,1.451-3.668,2.416-5.273,3.918c-0.102,1.354,0.416,2.67,0.639,3.996c-1.424,0.428-1.76,1.896-2.23,3.123
		c-1.361-0.121-2.701-0.412-4.066-0.508c-0.518,1.795-1.129,3.559-1.713,5.334c-2.607,2.184-5.654,3.818-8.256,6.025
		c0.588,1.08,1.311,2.08,1.969,3.123c-0.707,0.91-1.422,1.826-2.213,2.666c-0.725-1.043-1.17-2.303-2.125-3.166
		c-2.611,0.498-5.156,1.406-7.635,2.361c-0.016,0.902,0.002,1.813,0,2.719c-1.551,0.6-3.086,1.264-4.705,1.662
		c-0.732-2.031-1.367-4.09-2.098-6.121c0.973-0.449,1.945-0.91,2.867-1.461c-0.824-1.643-2.273-2.844-3.166-4.434
		c-0.357-1.648,1.529-1.742,2.668-1.801c-0.041-1.154-0.311-2.281-0.551-3.402c0.674-0.604,1.674-1.033,1.906-1.984
		c0.352-1.586,0.717-3.295,0.096-4.863c0.408-0.336,1.082-0.902,1.492-1.238c0,0-0.355-1.184-1.273-2.609
		c-1.412-2.229-2.348-4.73-3.822-6.916c-3.322-2.582-8.123-3.404-10.406-7.223c0.043-1.232,0.449-2.424,0.57-3.646
		c-2.15-1.525-4.35-2.971-6.631-4.295c1.303-2.094,3.094-3.832,4.506-5.85c0.322-0.404,0.35-0.928,0.453-1.408
		c-3.471-1.475-7.113-2.518-10.537-4.102c0.115-1.971,0.248-3.936,0.402-5.902c0.818-0.658,2.395-1.012,2.143-2.344
		c-0.389-3.314-0.59-6.682-1.285-9.943c-1.352-1.164-3.045-1.832-4.547-2.771c-0.889-0.598-2.166-0.994-2.416-2.17
		c-0.664-2.479-1.234-4.984-1.834-7.477c-0.605-1.963,1.43-3.818,0.297-5.719c1.436-2.186,2.773-4.436,4.336-6.533
		c1.045,0.537,2.162,1.107,2.746,2.186c2.316,3.797,4.758,7.518,7.041,11.334c0.459,0.59,0.795,1.592,1.643,1.652
		c2.766-0.184,5.496-0.67,8.248-1.006c1.295-0.117,2.695-0.629,3.926,0.045c1.527,0.707,2.336,0.971,3.414,1.475
		c0.844,0.361,0.875,0.012,1.379-0.498c0.318-0.32,0.725-1.014,1.049-1.492c1.041-1.826,2.156-3.615,3.271-5.396
		c0.717-1.275,2.611-0.773,3.4-1.967c0.689-0.902,1.375-1.738,1.994-2.764c0.594-1.053,5.057,1.631,5.469,0.088
		c0.713-1.662,1.666-2.898,2.594-4.211c0.869,0.209,2.01,0.313,3.895,0.109c1.271,0.383-0.453,2.477-0.209,3.953
		c2.676-0.174,4.533-1.141,6.293-1.65c1.807-2.402,3.979-4.389,4.971-5.01l8.242,7.465c0.996,1.02,5.105-7.16,6.311-6.42
		c0.713,0.439,1.42,0.885,2.076,1.398c0.957,0.805,2.135,1.252,3.191,1.898c0.752,0.447,1.086,1.295,1.453,2.047
		c2.172,4.895,4.385,9.775,6.609,14.646c0.381,0.828,0.814,1.691,0.727,2.633c-0.113,2.061-0.371,4.113-0.506,6.174
		c0.004,0.758-0.406,1.416-0.885,1.969c-3.283,3.688-6.613,7.324-9.881,11.025c-0.609,0.521-0.957,1.705-0.088,2.152
		c3.193,2.025,6.639,3.645,9.838,5.668c-0.893,1.176-1.699,2.439-2.754,3.479c-1.734,0.852-3.729,0.746-5.535,1.322
		c-1.059,1.264-1.053,3.084-1.531,4.617c-1.957-0.643-4.029-0.453-6.051-0.465c-2.166,0.004-4.793,0.154-6.955,0.139
		C318.713,406.309,312.445,409.242,312.445,409.242z"/>
</g>
<g id="greater-london">
	<path fill="#D3D3D3" d="M328.02,474.037c1.66-1.027,3.684-0.613,5.527-0.613c0.238,0.824,0.121,1.875,0.852,2.471
		c1.043,0.9,2.09,1.809,3.217,2.611c0.508,0.453,1.195,0.164,1.783,0.066c2.035-0.494,4.027-1.215,6.129-1.406
		c0.578,1.443,1.168,2.885,1.652,4.367c-0.941,1.359-2.213,2.463-3.105,3.857c-0.992,3.115-2.234,6.15-3.32,9.236
		c-0.453,1.49-1.693,2.664-3.098,3.256c-1.402-0.211-2.541-1.229-3.867-1.693c-1.051,0.891-2.016,1.875-3.014,2.824
		c-0.668-0.84-1.27-1.727-1.861-2.617c-0.82-0.102-1.643-0.174-2.459-0.27c-0.328-0.93-0.6-1.883-1.055-2.754
		c-1.24-0.07-1.785,1.441-2.639,2.154c-0.045-0.934,0.465-2.184-0.521-2.785c-2.422-1.723-5.049-3.152-7.445-4.908
		c-0.172-1.684,1.102-3.162,1.201-4.828c-0.291-1.242-0.859-2.396-1.229-3.613c1.934-0.412,3.963-0.301,5.855-0.895
		C323.172,477.158,325.525,475.475,328.02,474.037z"/>
</g>
<g id="south-west">
	<path fill="#D3D3D3" d="M263.182,472.109c0,0-0.076,0.801-0.1,1.541c-0.014,0.754,0.428,1.799,0.428,1.799
		c2.248,4.795,4.268,9.693,6.717,14.395c-0.533,0.596-1.072,1.199-1.592,1.809c0.676,2.893,2.32,5.584,2.186,8.631
		c-0.035,0.883,0.092,1.828-0.262,2.668c-2.082,1.068-4.4,1.59-6.473,2.686c0.754,4.703,1.459,9.408,2.152,14.123
		c0.15,1.205,0.775,2.713-0.508,3.531c-2.324-1.117-4.486-2.535-6.785-3.697c-1.051-0.592-2.242-0.064-3.35,0.035
		c-1.322,0.252-2.291,0.348-2.291,0.348c-0.859,0.301-0.994,0.789-0.586,1.461c1.066,1.535,2.006,3.148,3.018,4.723
		c0.637,0.09,1.279,0.18,1.922,0.262c-0.324,1.332-0.656,2.668-0.777,4.041c0.65,0.09,1.303,0.18,1.959,0.271
		c0.475,2.02,0.82,4.076,1.416,6.068c0.584-0.109,1.162-0.266,1.758-0.322c0.59,0.4,0.965,1.023,1.373,1.6
		c-3.135,1.352-6.723,0.844-9.916,1.941c-1.02,1.902-0.566,4.223-1.049,6.287c-6.055-0.604-12.072-1.607-18.121-2.291
		c-0.678-0.053-1.432-0.156-2.02,0.271c-0.506,1.021-0.756,2.146-1.119,3.227c-4.498-2.686-8.742-5.77-13.162-8.58
		c-1.896-1.051-4.178-0.693-6.199-1.328c0,0-1.406-0.174-1.818,0.088c-2.648,1.068-5.215,2.4-8.038,2.955
		c-1.736,0.434-3.512,0.734-5.229,1.242c-1.863,0.482-2.575,2.518-4.023,3.594c-1.314,0.387-2.753,0.092-4.041,0.604
		c-0.716,0.453-0.962,1.328-1.311,2.055c-0.681,1.674-1.55,3.268-2.213,4.951c-0.416,0.881,0.092,1.805,0.271,2.684
		c-0.85,0.82-2.246,1.313-2.58,2.52c0.417,1.184,1.549,1.941,2.326,2.895c-0.378,1.09-0.669,2.242-1.268,3.244
		c-1.352,0.855-3.052,0.885-4.46,1.627c-0.447,0.221-0.625,0.791-0.568,1.268c0.126,1.365,0.341,2.723,0.367,4.102
		c-2.406-0.361-4.773-0.912-7.145-1.443c-2.388-0.373-2.396-3.834-4.766-4.26c-2.279-0.451-4.594-0.74-6.873-1.189
		c-0.233-0.625-0.388-1.283-0.735-1.854c-0.47-0.291-0.981-0.49-1.478-0.717s-1.589-1.197-1.408-0.516
		c0.181,0.682,0.451,1.383,0.333,2.107c-0.388,0.48-0.858,0.889-1.32,1.303c-1.308-1.15-2.457-2.463-3.76-3.611
		c-0.757-0.695-1.844-0.525-2.781-0.559c-1.433,0.029-2.866-0.07-4.294,0.068c-1.873,0.459-2.98,2.814-5.089,2.484
		c-2.561-0.051-5.195-1.006-7.713-0.412c-1.583,2.193-2.13,4.975-3.559,7.268c-1.771,0.934-3.912,0.646-5.772,1.33
		c-1.625,1-1.764,3.268-3.244,4.398c-1.873,0.885-4.008,1.133-5.833,2.125c-0.14,0.217-0.419,0.656-0.56,0.875
		c1.179,1.234,2.69,2.109,3.76,3.453c-1.667,1.363-3.27,2.822-5.063,4.023c-1.46-2.314-2.706-4.756-4.093-7.109
		c-0.927-1.656-2.942-2.006-4.521-2.764c-1.214-0.443-2.367-1.211-3.69-1.242c-1.48,1.104-2.069,3.027-3.489,4.197
		c-1.358,0.58-2.833,1.014-4.312,1.094c-0.703-0.621-1.736-1.43-1.355-2.492c0.341-1.291,0.75-2.574,1.233-3.814
		c0.328-0.838,1.253-1.129,1.994-1.486c2.081-0.854,4.104-1.854,6.226-2.605c0.933,0.602,1.785,1.412,2.877,1.715
		c0.458-0.154,0.87-0.418,1.224-0.736c3.459-3.391,7.067-6.629,10.494-10.055c2.051-2.047,4.437-3.781,6.227-6.07
		c0.418-1.961,0.002-4.018,0.28-6.008c2.053-0.406,4.168-0.629,6.078-1.547c1.729-0.828,3.595-1.396,5.229-2.406
		c1.232-1.207,0.288-3.307,1.128-4.668c2.762-2.188,5.746-4.092,8.526-6.254c0.638-0.473,0.828-1.287,0.813-2.037
		c0.019-2.715,0.033-5.434,0.192-8.143c-0.009-0.098,0.313-1.061,0.411-1.371c0.28-1.299,0.632-2.572,1.066-3.822
		c2.604,0.338,5.059,1.486,7.687,1.652c1.26-0.51,2.034-1.734,3.026-2.613c0.99-1.094,2.331-1.99,2.851-3.42
		c-0.257-1.664-1.589-2.945-1.836-4.6c0.216-0.994,0.453-2.5,1.723-2.572c4.703-0.836,9.434-1.531,14.141-2.352
		c1.063-0.16,2.159-0.408,3.244-0.445c0.651-0.023,1.294,0.033,1.933,0.227c0.638,0.193,0.882,0.281,1.679,0.402
		c1.384,0.213,2.778,0.77,4.189,0.438c0.605-0.086,1.268-0.383,1.845-0.027c1.797,0.816,3.49,1.85,5.273,2.693
		c1.037,0.492,2.217,0.277,3.315,0.176c4.658-0.627,9.313-1.289,13.974-1.889c0.725-0.137,1.756-0.219,1.967-1.086
		c0.174-2.141-0.574-4.23-0.604-6.365c-0.068-0.572,0.398-0.965,0.727-1.355c3.352-3.678,6.713-7.35,10.084-11.01l0.936-1.031
		l1.24-1.121l0.84-1.014c1.59-1.85,3.131-3.738,4.391-5.832c0.861-1.527,2.363-2.725,2.711-4.504
		c-0.242-0.174-0.73-0.518-0.971-0.691c-1.695,1.004-2.611,2.854-4.242,3.936c-0.256-3.783-0.246-7.582-0.42-11.369
		c2.072-1.295,4.184-2.527,6.297-3.752c0.6-0.387,1.271-0.717,1.715-1.293c0.195-2.322-0.246-4.641-0.281-6.961
		c1.738,0.006,3.516-0.17,5.213,0.297c0.963,0.648,1.711,1.568,2.58,2.334c2.086-0.656,4.016-1.746,6.121-2.342
		c4.479-0.516,9.031-0.246,13.502-0.77c0.061-0.186,0.176-0.561,0.236-0.744c-0.768-1.203-1.756-2.238-2.588-3.393
		c1.254-0.758,2.586-1.377,3.918-1.984c1.275,1.258,2.502,2.568,3.732,3.873c1.043,0.908,0.574,2.42,0.648,3.629
		C264.643,460.682,263.912,465.244,263.182,472.109z M61.073,583.965l-0.927,1.006l0.209,0.191l-0.839-0.357l-1.767,1.512
		l0.333,1.514l1.058-1.049l-0.044,1.434l0.927,0.332l0.585-0.795l1.225-0.596l-1.032-1.582l0.315,0.279l1.093-0.289l1.215,1.26
		l0.927,0.297l0.927-0.883l-1.889-1.984L61.073,583.965z M62,587.375l-0.804,1.801l0.175,0.709l-0.087-0.113l-1.391-0.254
		l-0.717,0.254l-0.795-0.211l-0.087,0.719l0.717,1.512l1.933-0.166l0.595-1.521l-0.158-0.211l0.954,0.387l1.434-1.348l-0.043-1.137
		L62,587.375z M56.989,590.523l-0.673,0.428l0.717,1.129h1.513l0.131-0.752l-0.884-0.166L56.989,590.523z M55.31,590.777
		l-0.638,0.717l0.507,0.717l0.376,0.088l0.761-0.596L55.31,590.777z"/>
</g>
<path id="path6139" fill="none" stroke="#FFFFFF" stroke-width="3.9992" d="M154.053,373.826l3.188-2.451l5.519-4.783"/>
<g id="g7239" transform="matrix(0.476813, 0, 0, 0.476813, -127.859, 299.791)">
	<g id="northern-ireland">
		<path fill="#D3D3D3" stroke="#FFFFFF" stroke-width="6.235" d="M278.469-37.071l10.842-2.747l4.626-7.518l13.589-0.433l1.445-3.18
			l8.817-5.783l-11.13-3.469l-0.578-2.891l-2.458-0.434l-3.614-7.951h4.626l4.626-5.059l5.06,5.638l8.962-5.349l11.853-0.29
			l-2.891-2.602v-5.349l5.204-2.747l3.468-7.372l-1.156-4.191l0.434-5.783l3.758-4.626l0.578-5.637l8.384-8.385h11.854l9.83,3.904
			l9.396-23.996l6.36,3.903l11.565,0.723l5.637-5.638l9.251-0.723l7.228-5.637h8.963l11.998,6.939l8.095-3.904l7.806,8.385
			l-0.434,16.768l2.891-2.312l4.626,3.469l0.434,6.215l-1.879,0.434l0.867,2.458l2.602,0.289l10.697,17.635l1.734,7.083l3.181,0.144
			l-2.747-6.359h3.325l6.215,8.384l0.29,6.794l-3.18,2.746l-10.554,5.06l-6.215,10.842l0.289,3.325l3.758-2.892l7.661-6.939
			l18.07-0.143l4.047,10.841l3.325,2.169l0.289,8.673l4.047,3.903l-3.035,22.406l-2.024-0.578l-6.649-6.795l0.433-4.047l2.313-1.59
			l-0.579-7.518l-2.024-5.926l-1.59-0.289l-0.723-3.036l-3.758-2.023l-4.048-1.446l-0.722,5.493l2.458,3.325l3.035,4.771
			l0.723,3.903l-0.579,7.805l-5.926,5.927l0.866,1.735l4.626-2.891l4.192-2.312l7.083,8.238L496.169,0.512l-4.192-4.19
			l-10.697,0.434l-4.337,5.348l1.735,4.481l-2.024,11.852L460.608,29.28l-4.047-1.589l0.867-1.737h-4.337l-5.06-7.082l-10.697,0.578
			l-1.156,4.195l-9.974,0.578l-12.431,4.481l-5.927-6.071l1.735-3.183l-1.446-2.89l3.759-5.638l-6.506-7.373l-3.325,4.483
			l-8.238-13.444l-4.048-2.313l1.879-1.879l-0.578-7.806l-7.083-4.48l-7.662-4.193l-5.782,8.384l-3.614,1.59l-4.191,4.77l5.059,6.65
			v5.782l-8.528,2.601l0.144,7.373l-7.228,7.662l-2.603-0.578l-7.228-6.652l-3.034,3.615l-8.529-0.145l-10.986-11.42l-9.974,0.582
			l-4.914-2.749L304.2-9.317l-6.505-1.301l-3.615-9.541l-3.903,1.735L278.469-37.071z"/>
	</g>
</g>
<path id="isle-of-man" fill="#D3D3D3" stroke="#FFFFFF" stroke-width="2.9729" d="M142.369,301.453l3.511-4.345l2.44-4.94l2.5-3.393
	l5.059-2.321l2.024,0.714l-1.369,3.452l0.654,2.797l2.083,3.333l-2.38,4.225l-1.429,3.512l-3.452,2.619l-5.178,5.535l-3.273-0.893
	l-2.202,0.477l-2.916,2.143l-1.667-0.953l1.428-1.963l1.905-3.394L142.369,301.453z"/>
<g id="yorkshire">
	<path fill="#D3D3D3" d="M320.701,307.125c0.205,0.414,1.846,0.805,1.846,0.805c1.098,0.421,2.084,1.092,3.078,1.715
		c-1.449,1.18-3.178,1.959-4.6,3.166c-0.576,0.508-0.123,1.324,0.139,1.879c3.725,6.957,7.449,13.91,11.143,20.883
		c1.002,1.973,2.254,3.828,3.008,5.922c-1.844-0.104-3.676-0.355-5.51-0.533c-0.836-0.084-1.732-0.201-2.352-0.822
		c-1.912-1.813-3.707-3.748-5.598-5.58c-0.574-0.52-1.281-1.146-2.115-0.963c-1.551,0.316-3.018,0.945-4.531,1.391
		c-2.848,0.979-5.807,1.51-8.752,2.096c-0.871,0.172,1.666,0.791,3.256,1.389c0.145-0.309,1.561-1.557,2.494-1.359
		c2.217-0.244,6.504-1.914,5.93-1.482c-0.258,0.201,3.553,1.736,4.143,4.357c0.105,0.465,6.799,4.711,7.797,6.645
		c-1.086,0.516-3.633,4.01-5.094,6.002l-8.475-7.707c-0.686,0.447-4.123,3.621-5.631,5.689c-1.619,0.566-3.416,0.896-4.287,1.24
		c-0.539,0.215,1.422-3.172-0.744-3.752c-0.592,0.08-3.533,0.137-4.717-0.111c-0.707,0.412-2.563,3.617-2.928,4.217
		c-0.473,1.023-4.455-1.148-5.234-0.539c-0.73,1.262-1.189,1.764-2.242,3.23c-0.791,1.199-2.684,0.691-3.42,1.975
		c-1.635,2.383-2.881,5.016-4.723,7.258c-1.572-0.584-3.029-1.537-4.678-1.871c-3.682,0.297-7.318,0.988-10.992,1.365
		c-2.719-4.26-4.891-7.279-7.371-11.682c-0.301-0.443-0.879-1.568-1.555-1.924c-1.428-0.832-3.029-1.658-3.93-3.133
		c-1.531-2.303-3.098-4.576-4.688-6.838c-0.678-1.268-2.291-0.756-3.455-0.963c-0.338-0.955-0.992-1.955-0.646-2.998
		c0.428-1.369,0.971-2.697,1.443-4.051c0.611-1.836,2.203-2.764,3.355-4.215l-0.67-0.83c-2.369-2.443-4.547-5.066-6.805-7.607
		c-1.268-1.574-3.512-1.379-5.283-1.941c-0.203-1.012-0.357-2.035-0.559-3.043c-1.379-0.164-2.762-0.146-4.145-0.176
		c-1.145-1.662-2.15-3.426-3-5.256c1.176-1.98,2.102-4.123,3.48-5.973c1.553-0.733,3.307-0.885,4.906-1.495
		c0.57-0.126,0.664-0.727,0.664-1.216c-0.023-2.279-0.533-4.549-0.367-6.83c0.344-1.232,1.158-2.263,1.748-3.384
		c0.541-0.83,0.934-2.015,2.064-2.16c2.455-0.552,4.908-1.115,7.381-1.592c1.27-0.337,2.029,1.25,3.209,1.277
		c1.473-0.737,2.613-1.984,4.066-2.754c0.889-0.085,1.771,0.163,2.65,0.262c0.305-0.693,0.516-1.438,0.936-2.073
		c1.686-1.153,3.922-0.783,5.686,0.009c0.904,0.633,1.41,1.674,2.141,2.484c1.137,1.532,2.84,1.711,4.596,2.057l7.705-3.395
		l13.438,0.49l3.061-4.216c3.459,1.702,6.338,3.688,9.75,5.483c1.217,0.697,1.764,2.055,2.51,3.174
		C313.018,295.143,316.85,301.143,320.701,307.125z"/>
</g>
<g id="north-east">
	<path fill="#D3D3D3" d="M270.262,245.736l4.502,13.432l0.592,1.923c0,0,1.145,3.594,1.971,5.536
		c0.59,1.362,1.803,2.297,2.824,3.323c1.367,1.223,2.588,2.596,3.848,3.926l11.947,5.99l-2.59,3.559l-13.092-0.455l-7.816,3.515
		c-0.658-0.244-2.125-0.706-2.721-1.084c-1.105-0.953-1.717-2.371-2.867-3.271c-1.281-0.66-2.711-0.972-4.111-1.268
		c-1.658,0.367-3.682,0.892-4.18,2.772c-0.816,0.002-1.729-0.354-2.457,0.149c-1.199,0.778-2.314,1.68-3.488,2.492
		c-0.816-0.429-1.525-1.154-2.449-1.312c-1.758,0.238-3.457,0.845-5.238,0.936c-0.213-1.414-0.008-3.052-1.033-4.198
		c-1.555-1.93-3.445-3.564-4.922-5.562c0.426-0.82,0.861-1.644,1.25-2.483c-0.879-1-2.076-1.795-2.686-2.991
		c0.824-2.04,2.605-4.973,2.605-4.973s-3.117-4.483-4.389-6.151c-2.078,0.638-3.518,2.398-5.379,3.437
		c-0.863-1.489-1.807-2.95-2.475-4.539c0.289-1.2,1.258-2.149,1.838-3.235c-0.266-0.925-0.652-1.826-0.744-2.79
		c0.951-2.062,2.453-3.824,3.48-5.851c-2.236-3.096-4.959-5.807-7.17-8.92c1.967-2.143,4.215-3.995,6.287-6.034
		c2.871-2.898,5.941-5.595,8.832-8.474c1.211-1.192,2.598-2.248,3.559-3.664c0.145-1.106-0.643-2.118-1.031-3.122
		c-1.281-2.71-2.498-5.444-3.787-8.15c-0.238-0.599-0.629-1.204-0.559-1.872c2.01-1.998,4.266-3.741,6.348-5.667
		c1.506-1.238,2.885-2.616,4.451-3.778c5.105,4.865,10.012,9.939,14.99,14.937c0.652,0.561,0.875,1.411,0.996,2.23
		C266.99,224.62,268.609,235.178,270.262,245.736z"/>
</g>
<g id="north-west">
	<path fill="#D3D3D3" d="M233.174,301.587c-0.787,0.287-1.082,0.524-1.791,1.747c0,0-2.199,3.642-3.037,5.619
		c0.736,2.299,2.234,4.332,3.541,6.357c1.232,0.045,2.471-0.035,3.691,0.166c0.527,0.889,0.18,2.125,0.813,2.922
		c1.475,0.588,3.131,0.57,4.592,1.207c0.766,0.516,1.326,1.271,1.934,1.957c1.789,2.15,3.789,4.135,5.455,6.385
		c-1,1.111-2.328,2.047-2.744,3.559c-0.529,1.738-1.416,3.375-1.742,5.17c0.113,0.951,1.02,2.523,1.131,3.467
		c0,0,1.873,0.115,1.965,0.117l0.295,0.004c0.879-0.027,1.35,0.836,1.813,1.447c1.676,2.439,3.328,4.885,5.021,7.313
		c-1.57,2.656-3.361,5.178-4.959,7.816c0.307,0.521,0.627,1.029,0.943,1.549c-0.258,0.482-0.582,1.324-0.582,1.324
		c-0.152,0.594-0.236,1.789-0.133,2.121c0.789,3.061,1.586,5.354,1.887,8.508c-1.898,0.928-3.924,1.641-5.691,2.809
		c-1.643,1.604-3.004,3.488-4.715,5.027c-1.619,1.227-3.688,1.742-5.238,3.063c-0.561,1.186-0.146,2.711-0.865,3.803
		c-2.086,1.314-4.32,2.42-6.559,3.455c-0.535-1.246-1.141-2.453-1.871-3.594c-1.773,0.273-3.563,1.49-5.352,0.699
		c-1.199-0.391-2.438-0.643-3.646-0.98c-0.553-2.145-0.947-4.322-1.4-6.488c-0.287-1.824-2.381-2.207-3.604-3.254
		c0.773-0.701,1.625-1.314,2.346-2.072c0.477-0.412,0.432-1.236-0.133-1.547c-2.457-2.006-5.254-3.576-7.65-5.658l-0.85-1.094
		c-0.799-1.947-1.643-3.9-2.02-5.98c1.949-0.957,4.043-1.67,5.867-2.859c0.049-0.154,0.145-0.459,0.193-0.613
		c-0.439-2.484-1.863-4.699-2.344-7.17c1.471-2.98,2.984-5.957,4.723-8.799l1.275-0.018c-0.488-2.641-2.834-4.5-3.453-7.1
		c-0.123-2.771,0.061-5.549,0.209-8.316c1.857-1.029,3.791-1.922,5.668-2.912c0.607-0.316,1.338-0.922,1.021-1.697
		c-0.561-1.787-1.684-3.371-2.037-5.229c1.336-0.813,2.77-1.469,4.041-2.379c0.549-0.334,0.348-1.057,0.123-1.521
		c-0.648-1.336-1.42-2.608-1.994-3.98l-0.525-1.153c-1.592,0.249-2.686,1.536-3.9,2.466c-0.838-1.005-1.291-2.268-2.133-3.262
		c-0.4-0.12-0.807-0.207-1.217-0.271c-1.672,2.287-3.059,4.791-4.906,6.943c-1.085,0.102-1.741-1.348-2.194-2.195
		c0.183-1.851,1.219-3.496,1.513-5.324c-0.051-0.594-0.37-0.926-0.962-0.998c-1.401,0.506-2.624,1.387-3.97,2.012
		c-1.129-1.662-1.968-3.494-2.956-5.238c-2.669-4.892-5.318-9.799-8.002-14.683c-0.254-0.569-0.722-1.162-0.446-1.81
		c0.83-2.795,1.726-5.576,2.562-8.369c0.663-2.679,2.667-4.691,4.171-6.917c1.71-1.982,2.27-4.586,3.209-6.961
		c0.469-1.085,0.596-2.554,1.819-3.087c2.461-1.249,4.935-2.474,7.407-3.7c0.865-0.496,1.959-0.354,2.799-0.857
		c4.898-4.64,9.783-9.296,14.682-13.939c2.41,2.56,4.553,5.354,6.813,8.045c-0.951,1.673-2.09,3.232-3.053,4.897
		c-0.717,1.147,0.32,2.383,0.324,3.585c-0.477,1.073-1.359,1.917-1.783,3.017c0.031,0.613,0.383,1.141,0.646,1.679
		c0.904,1.608,1.734,3.27,2.799,4.783c1.932-0.963,3.492-2.501,5.326-3.621c1.219,1.505,2.26,3.143,3.365,4.731
		c-0.797,1.789-2.104,3.417-2.465,5.361c0.535,1.158,1.676,1.91,2.492,2.877c-0.311,0.825-1.199,1.631-0.998,2.527
		c1.52,2.329,3.799,4.043,5.439,6.279c0.613,1.088,0.416,2.402,0.5,3.603c-1.012,0.214-2.059,0.347-3.01,0.77
		c-0.912,0.733-1.318,1.891-1.941,2.851c-0.584,1.132-1.463,2.167-1.688,3.445c-0.023,2.338,0.34,4.66,0.43,6.996
		C235.912,300.89,234.328,301.227,233.174,301.587z"/>
</g>
<g id="west-midlands">
	<path fill="#D3D3D3" d="M236.186,384.928c-0.225,0.66-0.574,1.055-1.303,1.451c-2.451,1.148-4.635,2.646-7.131,3.701
		c-0.723-1.189-1.316-2.439-1.898-3.699c-1.246,0.188-2.469,0.51-3.654,0.928c-0.004,1.334,0.465,2.781-0.063,4.049
		c-1.1,0.984-2.559,1.574-3.979,1.941c-1.32-0.943-1.762-2.623-2.65-3.918c-2.18,0.271-4.338,0.668-6.506,1.023
		c-0.842,0.166-1.918,0.252-2.291,1.172c-0.875,1.725-1.893,3.395-2.554,5.221c2.224,1.822,4.722,3.275,6.917,5.133
		c-0.445,2.119-1.555,4.004-2.369,5.99c-0.939,2.262-2.096,4.439-2.869,6.768c1.262,0.588,2.568,1.045,3.83,1.637
		c-0.133,0.488,0.02,1.164-0.436,1.514c-2.377,1.936-5.092,3.455-7.303,5.596c3.057,1.617,6.705,3.521,9.83,5.008l-0.684,1.996
		c-1.604,4.635-3.223,9.268-4.871,13.889c-0.273,0.84-0.643,1.67-0.672,2.57c0.4,1.305,1.146,2.473,1.758,3.689
		c1.279,2.367,2.355,4.844,3.707,7.172c1.039-0.338,2.033-0.863,3.131-0.988c0.912,0.27,1.654,0.904,2.432,1.434
		c2.445,1.811,4.98,3.506,7.414,5.334c2.371-1.316,4.689-2.727,7.006-4.135c0.156-2.555-0.416-5.096-0.193-7.645
		c1.537-0.119,2.785-0.016,4.324-0.074c1.211-0.096,2.463,0.576,2.463,0.576c1.207,0.738,1.254,0.906,2.256,1.895
		c1.58-0.477,3.068-1.195,4.6-1.801c1.592-0.695,3.363-0.414,5.047-0.578c2.758-0.236,5.535-0.111,8.289-0.438
		c-0.803-1.111-1.797-2.092-2.432-3.314c1.059-1.287,2.846-1.646,4.225-2.518l1.529-0.773c0,0,1.584,1.521,2.275,2.391
		c0.973,1.203,2.352,2.102,3.043,3.516c0.18,1.461,0.031,2.938,0.061,4.408c1.211-0.709,2.551-1.275,3.551-2.283
		c1.326-2.719,1.736-5.83,3.201-8.49c1.189,0.266,2.365,0.607,3.551,0.9c0.938-1.711,1.223-3.701,2.281-5.352
		c0.355-0.801,1.365-0.689,2.072-0.945c-0.236-0.924-0.459-1.859-0.646-2.789c0.697-0.574,1.541-0.99,2.1-1.715
		c0.336-0.934,0.314-1.945,0.393-2.92c-0.682-0.23-2.146,0.088-1.854-1.041c0.791-0.855,1.83-1.426,2.701-2.195
		c-1.23-2.514-2.602-4.957-3.855-7.459c-0.572-1.359-2.104-1.777-3.254-2.492c-2.984-1.68-6.607-3.002-8.133-6.322
		c0.045-1.084,0.375-2.131,0.596-3.184c-0.59-0.416-1.186-0.824-1.785-1.215l-1.311-0.805c-1.189-0.832-2.496-1.5-3.604-2.441
		c-0.236-0.75,0.396-1.35,0.787-1.906c1.354-1.627,2.697-3.268,3.961-4.967c-3.254-1.676-6.871-2.496-10.17-4.074
		c0.004-2.197,0.256-4.385,0.342-6.576c-0.033-1.246,1.354-1.635,2.176-2.248c-0.191-2.822-0.652-5.615-0.918-8.43
		c0.02-1.424-1.523-1.832-2.492-2.492c-1.398-0.717-2.66-1.754-4.18-2.195c-1.277,0.418-2.445,1.115-3.691,1.617
		c-3.297,1.168-4.564,4.871-7.424,6.646c-1.41,0.76-2.869,1.438-4.258,2.238C236.451,382.924,236.318,384.01,236.186,384.928z"/>
</g>
<g id="south-east">
	<path fill="#D3D3D3" d="M313.828,486.145l0.385-1.059c0.195-0.688,0.447-1.363,0.523-2.074c-0.365-1.568-1.252-2.949-1.66-4.502
		c-0.557-2.656-1.441-5.232-2.301-7.801c-1.305-0.406-2.787-0.441-3.961-1.137c-1.262-1.662-2.447-3.393-3.541-5.168
		c-0.73-1.02,0.541-1.842,1.363-2.188c1.32-0.369,1.584,1.764,2.859,1.723c1.008,0.047,2.01-0.121,3.008-0.244
		c0.07-0.592,0.139-1.18,0.203-1.766c-2.121-0.881-4.305-1.613-6.332-2.693c0.398-1.762,1.141-3.42,1.625-5.152
		c0.307-1.756-0.709-3.5-0.375-5.246c0.926-1.369,2.193-2.465,3.254-3.727c-0.826-1.959-1.725-3.889-2.729-5.762
		c-2.594,1.77-5.199,3.521-7.713,5.404c0.537,0.957,1.451,1.795,1.607,2.912c-0.459,1.164-1.406,2.049-2.141,3.043
		c-0.5,0.512-1.016,1.469-1.863,1.076c-0.752-1.08-1.291-2.279-1.967-3.402c-2.025,0.572-4.061,1.141-6.035,1.871
		c0.037,0.516,0.004,1.035,0.053,1.557c-0.002,1.17-0.186,1.293-1.578,1.844c-0.861,0.342-2.943,1.146-5.102,1.75
		c-0.875-2.49-1.916-5.352-2.643-8.088c0.465-0.9,1.621-1.035,2.432-1.514c-0.662-0.941-1.396-1.828-2.178-2.668
		c-0.514,1.104-0.994,2.227-1.504,3.334c-1.248-0.109-2.455-0.451-3.648-0.807c-0.939,2.291-1.594,4.686-2.455,7.006
		c-0.422,1.555-2.15,2.018-3.334,2.852c-0.717,0.531-1.875,0.865-1.932,1.914c-0.625,4.787-1.102,9.594-1.758,14.377
		c-0.078,0.969-0.334,2.014,0.131,2.93c1.361,2.959,2.658,5.955,4.066,8.895c1.408,2.938,0.84,1.756,0.84,1.756
		s1.639,3.094,2.23,4.75c-0.555,0.627-1.121,1.254-1.672,1.889c0.939,1.561,1.855,6.086,1.855,6.086
		c0.326,2.201,0.086,3.414-0.131,5.623c-1.998,1.057-4.203,1.65-6.262,2.58c0.619,4.422,1.365,8.824,1.977,13.248
		c0.125,1.09,0.451,2.184,0.34,3.289c-0.49,0.793-1.35,1.234-2.08,1.775c-2.547-1.182-4.852-2.818-7.391-4.006
		c-1.404-0.254-2.822,0.283-4.223,0.41c0.691,1.398,1.547,2.701,2.387,4.016c0.795,0.121,1.721,0.287,2.535,0.457
		c-0.123,1.25-0.572,2.523-0.758,3.9c0.455,0.133,1.176,0.191,1.566,0.404c0.564,1.564,0.916,3.93,1.336,5.541
		c0.658,0.156,0.986-0.301,1.473,0.115c0.893,0.766,1.639,1.762,2.76,2.217c1.113,0.461,2.314,0.67,3.488,0.936
		c0.58-0.908,0.912-2.07,1.818-2.709c2.129-0.883,4.475-1.002,6.674-1.654c0.891-0.34,1.373-1.236,1.932-1.949
		c-0.533-1.473-1.561-2.734-1.924-4.26c0.26-0.359,0.539-0.699,0.848-1.014c3.266,2.229,6.18,4.979,9.508,7.1
		c2.529,0.121,5.096-0.049,7.633-0.182l1.32-0.307c2.521,0.986,4.584,2.82,7.057,3.891c0.57-1.215,1.084-2.459,1.723-3.637
		c6.848-1.359,13.732-2.475,20.586-3.795l1.486-0.295c3.744,1.531,7.678,2.578,11.49,3.936c2.727,0.766,5.227,1.947,8.029,2.357
		c1.658-1.566,2.826-3.557,4.363-5.23c0.648-0.68,1.607-0.904,2.467-1.197c2.873-0.838,5.734-1.703,8.605-2.553
		c3.283-0.912,4.973-4.664,8.404-5.203l0.916-0.893c1.35,1.285,3.252,1.736,5.064,1.854c-0.008-1.354-0.445-2.799,0.219-4.066
		c0.602-1.309,1.279-2.59,1.914-3.883c0.377-0.691,0.752-1.512,1.557-1.783c1.975-0.729,4.205-0.74,6.025-1.881
		c2.539-1.537,5.041-3.119,7.549-4.705c0.781-0.332,0.518-1.277,0.428-1.924c-0.52-2.482-1.113-4.941-1.619-7.424
		c-0.439-1.947,0.967-3.639,1.383-5.467c-3.139,0.379-6.176,1.303-9.297,1.793c-2.414,0.361-4.791,1.336-7.248,1.154
		c-2.178-1.285-3.559-3.725-6.043-4.512c-2.572-0.906-5.041-2.121-7.723-2.686c-2.172-0.467-4.305-1.096-6.48-1.539
		c-0.268-0.01-0.609-0.094-0.918-0.096c-0.307-0.002-0.586,0.082-0.725,0.41c-0.684,1.064-0.859,2.514-1.969,3.254
		c-1.584-0.125-3.061-0.822-4.625-1.041c-0.764,0.115-1.398,0.643-2.16,0.779c-0.951-0.455-1.633-1.289-2.414-1.967
		c-1.104,2.92-2.113,5.869-3.244,8.779c-0.572,1.387-3.086,2.871-3.086,2.871c-0.791,0.537-1.619,0.064-1.857-0.016
		c0,0-1.531-0.82-2.656-1.334c-0.705,0.701-1.393,1.424-2.107,2.115c-0.436,0.359-0.877,1.035-1.514,0.656
		c-0.838-0.818-1.373-1.883-2.02-2.842c-0.873-0.113-1.744-0.203-2.615-0.297c-0.305-0.68-0.59-1.359-0.883-2.037
		c-1.08,0.961-1.715,2.65-3.314,2.807c-0.041-1.283,0.139-2.547,0.193-3.822c0.055-0.514-0.51-0.748-0.832-1.014
		c-2.098-1.346-4.18-2.715-6.277-4.059C313.279,488.348,313.541,487.408,313.828,486.145z M280.518,537.486
		c0.375-0.305,0.809-0.682,1.332-0.479c1.752,0.484,3.383,1.324,5.092,1.943c1.219,0.424,2.197,1.293,3.125,2.164
		c-0.762,1.357-2.514,1.316-3.533,2.348c-0.463,1.002-0.391,2.156-0.775,3.189c-1.434,0.854-3.154,1.051-4.76,1.418
		c-1.076-1.1-2.045-2.346-3.379-3.148c-1.281-0.773-2.547-1.572-3.842-2.32c-0.887-0.607-2-0.381-3.002-0.441
		c0.275-0.313,0.492-0.695,0.861-0.904C274.732,540.445,278.088,539.711,280.518,537.486z"/>
</g>
<g id="east">
	<path sodipodi:nodetypes="ccccccccccccccccccccccccccccccccccccccccccccccccccccccccccccccccccccccccc" fill="#D3D3D3" d="
		M403.572,411.383c0.123,0.764,0.406,2.084,0.744,4.293c0.34,2.207-0.41,4.355-0.91,6.477c-1.33,6.355-2.838,12.672-4.186,19.025
		c-0.189,0.766-0.326,1.607-0.908,2.191c-2.576,2.711-5.379,5.199-7.914,7.947c-0.76,0.955-1.936,1.928-2.848,2.971
		c-0.912,1.041-2.145,1.867-2.746,3.143c-0.145,1.309,1.484,1.314,2.336,1.746c-1.719,1.762-3.428,3.582-5.412,5.041
		c-3.047,0.711-6.268,0.174-9.35,0.74c-0.475,0.201-0.684,0.563-0.627,1.082c0.574,1.25,2.158,2.045,1.971,3.594
		c-0.043,1.914,0.15,3.855-0.129,5.756c-1.158,1.969-2.738,3.658-4.059,5.523c-0.615,0.768-1.207,1.805-2.316,1.838
		c-2.973,0.316-5.949,0.578-8.924,0.854c-0.865,0.115-1.807-0.047-2.598,0.377c-0.898,1.311-1.324,2.879-2.131,4.246
		c-1.576-0.23-3.07-0.83-4.643-1.055c-0.627,0.121-1.182,0.447-1.756,0.701c-0.703-0.627-1.406-1.254-2.057-1.928
		c1.043-1.402,2.361-2.59,3.313-4.063c-0.424-2.158-1.309-4.277-2.408-6.189c-2.135,0.453-4.248,0.998-6.352,1.572
		c-0.533,0.084-1.156,0.412-1.641,0.023c-1.027-0.744-2.066-1.508-2.932-2.436c-0.137-0.271-0.18-0.807-0.254-1.299
		c-0.182-1.352-0.166-1.387-1.697-1.295c-1.564,0.133-3.164-0.115-4.705,0.203c-2.824,1.459-5.379,3.412-8.209,4.863
		c-1.834,0.596-3.801,0.553-5.695,0.84c-1.219-2.609-1.584-5.525-2.789-8.131c-1.227-1.26-3.674-0.457-4.674-2.104
		c-0.947-1.451-3.133-3.963-2.496-4.332c0.434-0.473,1.199,0.951,1.895,1.475c1.635,0.279,3.424-0.209,5.066-0.289l0.34-3.664
		c-1.98-0.877-4.1-1.641-6.076-2.521c0.436-1.617,1.156-3.15,1.506-4.787c0.016-1.354-0.428-2.656-0.51-3.998
		c-0.145-0.783,0.619-1.248,1.045-1.779c0.793-0.93,1.885-1.689,2.318-2.869c-0.785-2.563-2.391-4.791-3.221-7.334
		c-0.035-1.176,0.512-2.285,0.74-3.424c1.273,0.229,2.645,0.414,3.936,0.537c0.354-0.973,0.988-2.635,1.379-2.883
		c0.402-0.525,1.184-0.705,1.184-0.705c0.453-0.277,0.355-0.795,0.16-1.732c-0.201-0.773-0.484-1.74-0.633-2.627
		c1.662-1.295,3.547-2.299,5.117-3.703c0.666-1.73,0.617-3.678,0.76-5.514c-0.896-0.646-1.801-1.277-2.688-1.932
		c-0.092-1.063-0.141-2.129-0.207-3.189c-0.918-0.117-1.836-0.197-2.75-0.307c-0.135-0.889-0.225-1.625-0.279-2.518
		c2.68-0.998,5.383-2.795,8.346-2.639c2.889,0.039,5.648-0.104,8.537-0.055c1.371,0.01,3.494,0.549,3.883,1.014
		c0.59-1.703,0.912-3.482,1.492-5.188c1.176-0.234,2.549-0.477,3.67-0.643c2.057-0.422,2.42-1.25,2.666-1.48
		c1.348-1.496,1.074-1.523,2.398-3.039c1.209,0.508,2.293,1.301,3.553,1.689c0.896,0.086,1.104-0.969,1.471-1.574
		c1.602-3.721,3.148-7.465,4.711-11.203c0.258-0.592,0.604-1.391,1.402-1.248c5.158-0.035,10.318,0.01,15.479-0.016
		c3.955-0.191,7.775,1.029,11.654,1.594c1.744,0.436,3.795,0.287,5.174,1.627c3.912,3.289,7.773,6.641,11.688,9.93
		c0.863,0.773,2.014,1.494,2.158,2.756C402.49,404.699,403.063,408.035,403.572,411.383z"/>
</g>
</svg>
