<?xml version="1.0" encoding="UTF-8" standalone="no" ?>
<svg
  xmlns:dc="http://purl.org/dc/elements/1.1/"
  xmlns:cc="http://creativecommons.org/ns#"
  xmlns:rdf="http://www.w3.org/1999/02/22-rdf-syntax-ns#"
  xmlns:svg="http://www.w3.org/2000/svg"
  xmlns="http://www.w3.org/2000/svg"
  xmlns:sodipodi="http://sodipodi.sourceforge.net/DTD/sodipodi-0.dtd"
  xmlns:inkscape="http://www.inkscape.org/namespaces/inkscape"
  width="500"
  height="800"
  viewBox="-100 0 1000 1300"
  version="1.0"
  id="svg2"
>
   <!-- WALES -->
    <g class="region" style="fill: #d3d3d3" id="wales">
    <path
      d="M 454.65884,1084.0639 L 444.05465,1095.88 L 427.99689,1103.7574 L 417.08972,1100.7276 L 397.69921,1116.7855 L 397.39624,1124.9658 L 380.73252,1127.0867 L 357.40331,1125.2688 L 346.49615,1113.1497 L 338.61875,1112.5437 L 327.10564,1085.5788 L 314.68359,1087.6997 L 312.56276,1089.8205 L 309.23001,1097.0919 L 294.38414,1096.789 L 287.71866,1100.1218 L 277.72043,1094.3651 L 276.20554,1087.6997 L 280.7502,1083.458 L 289.23354,1084.6699 L 299.83773,1079.5193 L 290.74843,1078.6104 L 288.02163,1074.9747 L 275.90257,1076.7925 L 269.54006,1067.0972 L 270.44898,1058.9169 L 262.87456,1063.7645 L 240.15131,1063.4616 L 237.12154,1066.1883 L 233.18285,1076.4896 L 225.9114,1079.5193 L 218.33698,1077.7014 L 208.03578,1087.0937 L 198.34052,1080.4282 L 192.88693,1072.8538 L 202.58219,1067.7032 L 187.73633,1065.2793 L 186.22145,1070.733 L 177.7381,1061.6437 L 183.79764,1056.7961 L 192.28098,1055.5841 L 192.28098,1047.1008 L 184.70656,1039.2234 L 173.19345,1040.7383 L 170.76963,1037.1025 L 171.07262,1032.2549 L 194.09884,1022.5597 L 195.31075,1013.1674 L 203.18815,1011.6525 L 207.42982,1016.5002 L 214.39829,1012.5614 L 222.88163,1014.0763 L 228.94117,1005.593 L 232.57689,998.01855 L 238.9394,999.83635 L 240.75726,996.80657 L 255.60313,996.50367 L 274.0847,983.17262 L 288.62759,976.50721 L 297.71689,965.59997 L 307.71513,937.72613 L 306.80619,928.63687 L 298.62582,915.00289 L 308.0181,902.58083 L 309.53299,896.82428 L 300.14071,884.09924 L 301.65559,877.43374 L 300.14071,868.64746 L 308.0181,863.19388 L 275.90257,866.82957 L 263.48052,876.52488 L 263.7835,882.58442 L 259.23884,885.61414 L 251.66442,879.25163 L 236.51559,884.09924 L 233.7888,882.58442 L 255.30015,858.64925 L 260.14778,857.74031 L 280.7502,842.28844 L 281.05317,826.53367 L 271.35792,819.86817 L 261.0567,806.53726 L 254.99717,805.9313 L 245.90787,793.20626 L 257.72396,791.08539 L 259.54182,778.66333 L 286.80972,776.23957 L 290.74843,788.05567 L 294.9901,796.53897 L 311.35085,796.23598 L 301.65559,809.56699 L 317.71336,806.84015 L 333.77112,801.0836 L 332.86219,792.29732 L 343.76935,798.05387 L 357.40331,799.87176 L 387.09503,789.57048 L 402.84982,803.81043 L 454.23496,832.77353"
      style="fill-rule: evenodd; stroke: rgb(255, 255, 255); stroke-width: 3.99922; stroke-linecap: butt; stroke-linejoin: miter; stroke-miterlimit: 4; stroke-dasharray: none; stroke-opacity: 1; fill-opacity: 1;"
    />
    </g>
   <!-- END OF WALES -->
   <!-- IRELAND -->
    <g class="region" style="fill: #d3d3d3" id="ireland">
    <path
      style="fill-rule: evenodd; stroke: rgb(255, 255, 255); stroke-width: 2.97293; stroke-linecap: butt; stroke-linejoin: miter; stroke-miterlimit: 4; stroke-dasharray: none; stroke-opacity: 1; fill-opacity: 1;"
      d="M 99.826939,666.69353 L 116.59015,686.39766 L 92.474655,683.45675 L 91.592383,701.6904 L 106.29695,707.27814 L 105.12058,741.09864 L 116.88424,755.50912 L 118.06061,769.33141 L 112.17878,776.09551 L 122.17788,791.38826 L 103.06195,794.62326 L 115.41378,806.09283 L 113.64924,818.73876 L 120.70742,833.14923 L 118.35469,844.6188 L 122.17788,859.91154 L 108.94377,892.55568 L 107.76741,897.84933 L 99.532852,911.08344 L 99.532852,930.19938 L 83.357826,958.72623 L 68.947355,962.25533 L 81.887369,986.66491 L 58.360058,991.07627 L 42.47913,981.95945 L 19.540004,996.66402 L 1.0122525,992.54673 L -25.750059,995.48765 L -49.865548,999.01675 L -43.395539,1006.9573 L -58.100106,1024.3086 L -73.098763,1025.1909 L -92.214701,1040.7778 L -104.86063,1045.4833 L -105.44881,595.81753 L -91.920609,596.11161 L -77.510134,569.6434 L -92.214701,570.23158 L -103.09608,574.64294 L -104.86063,568.17294 L -126.3293,567.58476 L -138.97522,559.64429 L -138.68113,554.05656 L -127.50566,546.41019 L -104.27245,545.5279 L -114.27155,534.05835 L -93.685157,535.2347 L -88.097422,527.88243 L -100.44926,520.53015 L -97.508345,514.35422 L -98.68471,504.35512 L -89.86197,501.41421 L -88.097422,485.53328 L -85.4506,477.8869 L -69.569668,483.76872 L -55.453284,472.00507 L -37.807804,484.06282 L -41.925082,473.47552 L -32.51416,466.12325 L -19.574141,468.77007 L -10.751401,491.70919 L -18.103684,499.64966 L -23.691419,515.53059 L -11.633675,511.41331 L -2.8109344,505.23739 L -5.7518483,496.70875 L -2.516843,489.35646 L -8.3986697,476.12235 L -6.3400311,465.24097 L 4.8354405,459.06505 L 13.65818,462.30005 L 7.4822618,448.18367 L 26.010017,456.12414 L 28.068659,461.41778 L 46.596414,469.35825 L 46.890501,474.94598 L 42.47913,479.94554 L 28.950931,484.65099 L 18.657732,494.35602 L 14.834545,504.64921 L 37.185487,596.40571 L 99.826939,666.69353 z"
    />
      </g>
   <!-- ENDO OF IRELAND -->
   <!-- SCOTLAND -->
    <g
    style="fill: #d3d3d3; fill-opacity: 1;"
    class="region"
    id="scotland"
    transform="matrix(2.16104, 0, 0, 2.16104, -714.396, -978.943)"
  >
      <path
      id="path2470"
      d="M 514.28125,409.37602 L 516.59375,413.31352 L 515.71875,415.28227 L 506.0625,411.87602 L 497.15625,414.90727 L 483.5625,416.53227 L 474.46875,418.50102 L 466.96875,414.37602 L 462.5,416.53227 L 457.84375,414.37602 L 450.1875,409.56352 L 447.15625,412.59477 L 443.5625,419.75102 L 448.5625,425.28227 L 443.9375,426.53227 L 441.4375,428.50102 L 443.9375,436.71977 L 435.71875,438.84477 L 430.53125,439.90727 L 434.46875,446.15727 L 436.0625,450.62602 L 431.96875,450.62602 L 427.5,449.75102 L 434.65625,457.25102 L 440.34375,463.50102 L 431.59375,463.84477 L 427.15625,468.31352 L 421.0625,464.21977 L 418.75,469.03227 L 414.46875,468.12602 L 411.59375,469.37602 L 411.59375,477.06352 L 416.78125,480.09477 L 411.25,486.71977 L 416.96875,492.40727 L 418.5625,495.09477 L 416.25,495.46977 L 410.1875,491.34477 L 408.5625,496.00102 L 408.03125,501.34477 L 411.59375,508.50102 L 419.09375,509.03227 L 414.65625,514.37602 L 407.5,516.87602 L 403.40625,512.78227 L 398.5625,509.21977 L 395.90625,504.21977 L 396.96875,495.62602 L 397.15625,489.37602 L 391.25,478.84477 L 386.59375,482.59477 L 386.96875,489.56352 L 389.8125,494.90727 L 388.40625,496.71977 L 385.71875,494.03227 L 381.0625,489.56352 L 377.5,488.12602 L 375.90625,491.00102 L 376.96875,498.50102 L 371.59375,493.50102 L 369.8125,497.06352 L 370.71875,502.96977 L 374.65625,506.71977 L 377.5,507.40727 L 380.53125,502.25102 L 384.65625,506.53227 L 381.78125,511.15727 L 388.9375,521.87602 L 395.53125,521.00102 L 397.84375,525.46977 L 401.0625,520.81352 L 403.9375,522.40727 L 402.6875,526.34477 L 399.46875,533.31352 L 403.75,531.87602 L 406.59375,529.37602 L 410.90625,522.06352 L 414.46875,519.90727 L 417.3125,520.09477 L 410.1875,530.81352 L 414.09375,534.21977 L 406.4375,536.87602 L 402.5,545.46977 L 410.90625,545.81352 L 405,552.06352 L 401.25,553.84477 L 391.25,554.37602 L 388.75,558.50102 L 408.75,561.34477 L 400.34375,563.65727 L 398.9375,565.46977 L 403.03125,571.87602 L 408.03125,572.25102 L 412.15625,575.28227 L 424.8125,565.28227 L 433.40625,556.87602 L 428.03125,565.81352 L 419.09375,583.12602 L 414.8125,593.50102 L 417.3125,602.06352 L 411.78125,613.31352 L 407.6875,620.28227 L 410.53125,622.96977 L 413.5625,622.25102 L 409.09375,628.84477 L 412.5,633.84477 L 406.59375,648.84477 L 406.4375,659.21977 L 402.15625,663.50102 L 401.0625,670.62602 L 411.0625,669.75102 L 413.5625,666.87602 L 419.09375,637.96977 L 426.0625,633.84477 L 421.59375,623.31352 L 420,618.50102 L 420.90625,613.84477 L 422.84375,614.37602 L 427.5,609.37602 L 425.90625,615.28227 L 424.46875,621.15727 L 425.71875,625.81352 L 430.1875,629.75102 L 437.84375,638.31352 L 439.46875,632.96977 L 442.15625,624.90727 L 443.21875,619.37602 L 446.96875,617.40727 L 451.4375,617.78227 L 456.59375,621.00102 L 452.3125,621.15727 L 448.03125,620.28227 L 445.53125,622.78227 L 444.28125,629.21977 L 446.0625,636.00102 L 442.84375,639.75102 L 451.4375,647.59477 L 453.5625,649.90727 L 453.75,659.75102 L 449.46875,663.12602 L 447.6875,666.34477 L 445.53125,670.09477 L 442.3125,679.21977 L 436.59375,684.90727 L 434.65625,691.00102 L 435.71875,702.40727 L 431.78125,694.37602 L 428.9375,695.28227 L 428.5625,699.75102 L 429.65625,705.81352 L 436.0625,713.31352 L 437.84375,721.53227 L 440.9375,723.28227 L 441.78125,723.59477 L 438.0474,709.03078 L 443.48856,705.9958 L 450.0625,711.09477 L 451.59375,712.25102 L 463.21429,720.82245 L 465.71875,711.00102 L 460.90625,706.15727 L 463.5625,704.56352 L 469.28125,708.65727 L 478.03125,713.65727 L 483.21875,715.09477 L 489.46875,711.71977 L 491.59375,706.71977 L 499.8125,707.25102 L 500.71875,697.96977 L 523.5625,699.37602 L 525.1875,694.37602 L 532.15625,692.06352 L 537.3125,686.53227 L 543.03125,680.28227 L 550.1875,669.90727 L 555.1875,669.56352 L 564.65625,661.34477 L 557.84375,646.87602 L 565.3564,639.29067 L 567.12373,637.26243 L 570.53125,634.03227 L 567.6875,628.65727 L 564.09375,624.75102 L 555.90625,623.84477 L 552.15625,619.90727 L 546.78125,617.96977 L 544.46875,613.65727 L 537.5,614.56352 L 533.75,620.46977 L 529.28125,622.25102 L 523.9375,622.40727 L 519.28125,620.09477 L 513.39535,620.24279 L 502.30755,618.43185 L 491.79911,612.59923 L 493.83929,610.75995 L 502.53839,614.38429 L 513.5625,616.18852 L 520.79283,612.44662 L 522.61285,607.95684 L 531.55338,601.61804 L 536.68058,604.39534 L 546.70187,597.12507 L 533.9639,590.57387 L 536.60993,588.31095 L 537.23495,584.43869 L 533.11625,583.61541 L 521.1319,588.63681 L 525.26533,583.37277 L 537.59375,580.62602 L 540.31678,581.7975 L 547.79036,573.89109 L 551.39149,568.85293 L 554.34143,559.71758 L 561.18379,552.2253 L 565.37098,541.31955 L 568.21875,532.78227 L 569.28125,525.09477 L 570.71875,520.62602 L 575.90625,511.53227 L 582.15625,504.90727 L 581.25,501.00102 L 579.28125,492.40727 L 574.8125,486.71977 L 565.34375,487.40727 L 554.09375,488.31352 L 546.59375,486.87602 L 536.96875,485.09477 L 532.15625,486.87602 L 527.15625,486.71977 L 519.8125,483.65727 L 513.5625,483.84477 L 510.1875,485.46977 L 505.71875,487.59477 L 498.9375,488.50102 L 495.1875,491.87602 L 491.0625,493.65727 L 488.03125,491.71977 L 484.8125,496.15727 L 480.34375,500.62602 L 478.21875,500.28227 L 482.84375,493.50102 L 487.3125,485.28227 L 497.84375,471.71977 L 493.21875,472.25102 L 485.71875,474.37602 L 481.96875,474.75102 L 488.75,468.31352 L 488.9375,463.12602 L 494.8125,460.62602 L 495.71875,456.71977 L 504.65625,449.75102 L 510,446.00102 L 513.21875,441.53227 L 516.59375,438.50102 L 523.40625,434.90727 L 527.6875,431.00102 L 529.09375,425.28227 L 524.65625,423.84477 L 529.8125,411.15727 L 514.28125,409.37602 z"
      style="fill-rule: evenodd; stroke: rgb(255, 255, 255); stroke-width: 1.8506; stroke-linecap: butt; stroke-linejoin: miter; stroke-miterlimit: 4; stroke-dasharray: none; stroke-opacity: 1; fill-opacity: 1;"
    />
      <path
      id="path3273"
      d="M 399.01026,508.76265 L 399.13653,498.15605 L 403.68221,490.70617 L 404.06102,495.37813 L 403.17714,498.78739 L 401.15683,501.06024 L 401.66191,504.97458 L 402.54579,507.87877 L 400.14668,510.02534 L 399.01026,508.76265 z"
      style="fill-opacity: 1; fill-rule: evenodd; stroke: none; stroke-width: 1px; stroke-linecap: butt; stroke-linejoin: miter; stroke-opacity: 1;"
    />
      <path
      id="path3265"
      d="M 332.08765,535.40542 L 336.50707,529.21824 L 340.16887,528.83943 L 341.6841,533.00631 L 336.00199,537.80454 L 332.08765,535.40542 z"
      style="fill-opacity: 1; fill-rule: evenodd; stroke: none; stroke-width: 1px; stroke-linecap: butt; stroke-linejoin: miter; stroke-opacity: 1;"
    />
      <path
      id="path3259"
      d="M 357.34146,576.69541 L 356.45758,570.50822 L 357.72027,569.3718 L 367.56926,570.25569 L 356.96266,577.32675 L 357.34146,576.69541 z"
      style="fill-opacity: 1; fill-rule: evenodd; stroke: none; stroke-width: 1px; stroke-linecap: butt; stroke-linejoin: miter; stroke-opacity: 1;"
    />
      <path
      id="path3261"
      d="M 366.43284,567.7303 L 371.73614,562.80581 L 380.19616,556.23982 L 378.80721,562.93208 L 370.47345,566.21508 L 366.43284,567.7303 z"
      style="fill-opacity: 1; fill-rule: evenodd; stroke: none; stroke-width: 1px; stroke-linecap: butt; stroke-linejoin: miter; stroke-opacity: 1;"
    />
      <path
      id="path3251"
      d="M 427.29453,660.4118 L 422.1175,654.09835 L 423.63272,649.17385 L 421.10734,645.76459 L 423.00138,641.34517 L 427.4208,637.93591 L 431.58768,641.72398 L 432.09275,648.41624 L 434.87067,651.57297 L 433.22917,661.29568 L 427.29453,660.4118 z"
      style="fill-opacity: 1; fill-rule: evenodd; stroke: none; stroke-width: 1px; stroke-linecap: butt; stroke-linejoin: miter; stroke-opacity: 1;"
    />
      <path
      id="path3253"
      d="M 371.86241,637.93591 L 374.38779,625.05646 L 379.43855,623.41496 L 389.91888,619.50062 L 391.18157,625.43527 L 394.08576,638.56725 L 389.54008,641.34517 L 382.21647,646.5222 L 380.0699,644.88071 L 380.82751,642.35532 L 382.72155,640.71383 L 380.82751,636.29441 L 382.0902,633.8953 L 384.36304,630.99111 L 382.0902,629.72842 L 379.43855,630.48603 L 373.88271,636.42068 L 371.86241,637.93591 z"
      style="fill-opacity: 1; fill-rule: evenodd; stroke: rgb(255, 255, 255); stroke-width: 0.514055px; stroke-linecap: butt; stroke-linejoin: miter; stroke-opacity: 1;"
    />
      <path
      id="path3255"
      d="M 390.55023,622.40481 L 394.08576,619.62689 L 396.35861,618.49047 L 400.02041,616.97524 L 396.23234,616.47016 L 397.74757,612.17702 L 405.19744,606.99998 L 409.61686,603.59072 L 411.13209,606.62118 L 408.60671,609.7779 L 403.80848,618.11166 L 395.72726,631.74872 L 392.318,630.10722 L 390.55023,622.40481 z"
      style="fill-opacity: 1; fill-rule: evenodd; stroke: rgb(255, 255, 255); stroke-width: 0.514055px; stroke-linecap: butt; stroke-linejoin: miter; stroke-opacity: 1;"
    />
      <path
      id="path3257"
      d="M 380.19616,585.66051 L 392.57053,586.29186 L 388.78246,583.76648 L 392.57053,574.92764 L 383.7317,570.88703 L 385.87827,566.21508 L 391.93919,562.0482 L 395.09591,563.81596 L 398.25264,569.87688 L 401.2831,574.04376 L 406.71267,574.2963 L 411.8897,577.20048 L 413.40493,579.22079 L 411.76343,586.79693 L 405.57625,589.70112 L 401.53564,587.68082 L 384.36304,593.23666 L 380.19616,585.66051 z"
      style="fill-opacity: 1; fill-rule: evenodd; stroke: none; stroke-width: 1px; stroke-linecap: butt; stroke-linejoin: miter; stroke-opacity: 1;"
    />
      <path
      id="path3263"
      d="M 380.57497,533.89019 L 386.00454,540.83499 L 390.42396,535.40542 L 388.52992,530.6072 L 385.87827,530.6072 L 380.57497,533.89019 z"
      style="fill-opacity: 1; fill-rule: evenodd; stroke: none; stroke-width: 1px; stroke-linecap: butt; stroke-linejoin: miter; stroke-opacity: 1;"
    />
      <path
      id="path3267"
      d="M 341.81037,523.03105 L 339.66379,512.67699 L 343.57814,507.12115 L 342.31544,503.58562 L 342.31544,501.56531 L 345.47217,498.53485 L 348.88144,502.828 L 351.02801,505.73219 L 351.28055,509.89907 L 348.25009,513.93968 L 348.50263,525.05136 L 341.81037,523.03105 z"
      style="fill-opacity: 1; fill-rule: evenodd; stroke: rgb(255, 255, 255); stroke-width: 0.514055px; stroke-linecap: butt; stroke-linejoin: miter; stroke-opacity: 1;"
    />
      <path
      id="path3269"
      d="M 344.71456,499.1662 L 342.94679,497.27216 L 343.7044,493.61036 L 345.3459,492.47394 L 344.96709,488.43333 L 337.51722,483.50884 L 341.93664,478.45807 L 354.18474,478.07927 L 359.61431,483.00376 L 356.71012,488.30706 L 348.88144,500.17635 L 347.61875,501.18651 L 345.47217,498.66112 L 344.20948,499.1662 L 344.71456,499.1662 z"
      style="fill-opacity: 1; fill-rule: evenodd; stroke: rgb(255, 255, 255); stroke-width: 0.514055px; stroke-linecap: butt; stroke-linejoin: miter; stroke-opacity: 1;"
    />
      <path
      id="path3271"
      d="M 362.8973,474.16492 L 357.21519,467.22013 L 363.27611,465.32609 L 366.1803,463.55832 L 369.96837,461.91682 L 365.17015,458.63383 L 356.71012,452.19411 L 365.80149,450.80515 L 360.11938,446.13319 L 360.24565,440.70362 L 364.15999,435.77913 L 367.69553,437.16809 L 374.64033,440.19855 L 373.25137,431.61225 L 383.98424,425.04626 L 397.36876,416.7125 L 399.13653,429.08687 L 395.22218,433.75882 L 391.93919,438.68332 L 389.66634,447.14334 L 388.90873,455.35083 L 383.35289,461.41175 L 377.29198,462.04309 L 376.7869,464.56848 L 373.1251,465.07355 L 372.99883,468.48282 L 362.8973,474.16492 z"
      style="fill-opacity: 1; fill-rule: evenodd; stroke: none; stroke-width: 1px; stroke-linecap: butt; stroke-linejoin: miter; stroke-opacity: 1;"
    />
   </g>
   <!-- END OF SCOTLAND -->

    <path
    style="fill: rgb(255, 255, 255); fill-opacity: 1; fill-rule: nonzero; stroke: none;"
    d="M 513.09169,386.25237 C 514.51877,384.77916 517.14529,384.13574 518.66705,385.84193 C 530.93865,398.22161 543.2846,410.53543 555.62925,422.84552 C 557.47529,424.67199 558.97979,426.9478 559.3442,429.56979 C 563.21657,455.23967 567.19857,480.90156 571.10195,506.56981 C 572.53544,513.47851 575.35192,519.99354 577.52824,526.68416 C 580.83943,536.9473 584.38021,547.13483 587.7725,557.37228 C 589.22202,562.66028 594.21797,565.63647 597.57375,569.63134 C 602.4763,573.87302 606.29748,579.60674 612.41426,582.24178 C 627.87993,589.89982 643.28415,597.68278 658.74405,605.35432 C 660.70671,606.29761 662.59937,607.55451 663.7268,609.48272 C 672.5076,623.49372 681.48107,637.38375 690.32812,651.35428 C 691.70284,653.49669 692.91866,655.78041 694.63536,657.68501 C 699.71561,660.86966 705.23586,663.29742 710.37985,666.3852 C 710.4178,667.00327 710.49372,668.2395 710.53168,668.85757 C 706.18558,672.19767 701.28671,674.72471 696.92569,678.04148 C 708.66342,701.08818 721.24668,723.71144 733.2705,746.61533 C 734.13649,747.94176 733.74541,749.52148 733.67609,751.00148 C 725.15489,751.25639 716.73031,749.4231 708.26943,748.63978 C 715.2139,757.14507 725.90886,760.98687 734.45685,767.51446 C 736.7072,769.41096 737.50805,772.36804 738.70232,774.94948 C 744.32619,787.47285 750.01825,799.96525 755.67455,812.47536 C 757.40122,816.01106 756.13009,819.9954 755.99043,823.72039 C 755.38127,828.07324 755.45021,832.5438 754.45151,836.83059 C 752.24344,840.40671 749.06758,843.30921 746.34212,846.4999 C 740.23804,853.5454 733.63346,860.16736 727.87994,867.50836 C 738.30994,873.57493 748.7992,879.5831 759.49448,885.16951 C 764.19186,875.26319 768.04321,864.98061 772.45174,854.94723 C 773.25932,853.10094 774.57242,850.83406 776.95694,851.21058 C 792.12716,851.17016 807.30053,851.2226 822.47332,851.18815 C 825.6108,851.1406 828.67521,851.89445 831.73918,852.50139 C 839.77566,853.9221 847.81521,855.34851 855.83408,856.87971 C 858.76699,857.3766 860.75528,859.76422 862.98947,861.51097 C 872.90986,870.00023 882.8772,878.43367 892.80541,886.91724 C 894.24,888.23458 896.05531,889.50749 896.43414,891.56693 C 898.56196,902.20591 899.72269,913.02002 902.02305,923.62927 C 902.52805,928.19731 903.71353,932.86365 902.65252,937.4447 C 899.64585,951.31115 896.47813,965.14056 893.39908,978.99098 C 891.47394,985.88966 890.96266,993.28577 888.11919,999.86425 C 877.5828,1010.8047 866.53361,1021.2695 856.195,1032.4087 C 858.41221,1033.3139 860.68848,1034.0613 862.92926,1034.9413 C 862.69137,1036.3668 862.30989,1037.813 861.13876,1038.7783 C 856.3584,1043.5087 851.36078,1048.0187 846.41623,1052.5756 C 844.28301,1054.5839 841.17433,1054.4845 838.45606,1054.6939 C 833.92191,1054.7821 829.40683,1055.2034 824.87832,1055.2798 C 825.76328,1057.3052 827.36924,1059.155 827.28825,1061.4866 C 827.31243,1066.5508 827.36218,1071.6223 827.2587,1076.6909 C 827.19282,1080.4948 823.83373,1082.935 821.89666,1085.8732 C 818.39612,1090.1154 815.57577,1095.0141 811.5509,1098.766 C 805.74859,1100.8409 799.35125,1099.904 793.39031,1101.3703 C 797.30472,1103.1325 801.65144,1103.5027 805.68078,1104.9472 C 811.30712,1106.8835 816.84347,1109.0906 822.3536,1111.3449 C 827.3938,1113.4544 830.19476,1118.8222 835.05941,1121.0812 C 848.75954,1119.2089 862.21443,1115.5137 875.86971,1113.2106 C 877.62915,1112.6856 879.63308,1113.823 879.35022,1115.8302 C 878.29471,1120.434 875.24278,1124.4251 874.6407,1129.1275 C 875.54289,1137.8071 878.78004,1146.1315 879.49226,1154.8307 C 878.05895,1156.8208 875.7953,1157.9347 873.784,1159.232 C 868.23417,1162.5526 862.78675,1166.0381 857.30511,1169.4665 C 852.87569,1172.4011 847.41926,1172.6708 842.49904,1174.3182 C 840.54516,1174.8211 839.94515,1176.9951 839.03197,1178.5431 C 837.61308,1181.663 835.67728,1184.5813 834.73026,1187.8987 C 834.65501,1191.5494 835.97979,1195.1629 835.21984,1198.8242 C 828.30132,1199.2618 821.533,1197.1118 814.65893,1197.0975 C 808.95191,1199.9732 805.00956,1205.5481 799.21569,1208.3156 C 790.76944,1211.0247 782.19935,1213.3501 773.73551,1216.0058 C 770.31101,1216.9255 768.75232,1220.4342 766.55265,1222.8787 C 763.79415,1225.9398 761.82293,1229.8524 758.31604,1232.1455 C 753.39697,1231.6669 748.8919,1229.297 744.14059,1228.0549 C 733.06782,1224.312 721.92697,1220.7841 710.84147,1217.0905 C 708.71504,1216.3509 706.42156,1216.5113 704.25995,1216.9384 C 688.59826,1220.0833 672.80116,1222.5284 657.14487,1225.688 C 655.74588,1228.488 654.81245,1231.5025 653.31382,1234.2583 C 652.61949,1235.6782 650.69155,1236.5363 649.30132,1235.5671 C 644.52545,1233.1241 640.23696,1229.839 635.57757,1227.1966 C 634.72828,1226.6642 633.81225,1226.4043 632.82947,1226.4165 C 625.10062,1226.2554 617.36015,1226.8868 609.66031,1226.8352 C 603.98778,1223.7639 599.41824,1218.974 594.03848,1215.4119 C 594.59185,1219.8752 591.48987,1223.5346 588.28534,1226.1954 C 582.73174,1228.2318 576.66703,1228.4637 571.09817,1230.4327 C 568.7427,1232.4873 568.62032,1236.2905 565.83329,1237.9267 C 561.62076,1238.3293 557.81089,1235.7219 553.69046,1235.5561 C 545.98917,1239.1231 537.29149,1238.8109 529.09699,1240.4404 C 528.09004,1245.3337 528.3276,1250.3894 527.30702,1255.2788 C 527.09844,1256.6464 525.39028,1257.1738 524.18807,1256.9952 C 512.87042,1255.7629 501.62231,1253.9513 490.31122,1252.6617 C 485.94597,1252.2049 481.62956,1250.9666 477.22668,1251.1137 C 474.9353,1253.7581 475.67136,1258.1473 473.12373,1260.7891 C 471.48468,1261.4092 470.08077,1260.1271 468.74971,1259.3941 C 458.05189,1252.3011 447.39094,1245.1513 436.65139,1238.1262 C 434.33059,1236.7368 431.51118,1236.8138 428.92959,1236.343 C 425.76939,1236.03 422.56235,1234.9337 419.39341,1235.6513 C 413.41549,1237.5891 407.92227,1240.9055 401.73004,1242.2049 C 397.43428,1243.1113 393.18674,1244.2212 388.9063,1245.1915 C 383.57198,1245.8519 381.84178,1251.8207 377.78639,1254.5227 C 374.58202,1255.4811 371.17184,1255.3556 367.88241,1255.864 C 365.80472,1260.6152 363.2886,1265.1906 361.52482,1270.0741 C 360.57712,1272.4695 363.21753,1274.4566 362.95566,1276.8192 C 361.43593,1279.1693 358.85459,1280.5052 356.79099,1282.3214 C 358.52126,1284.3471 360.22952,1286.3964 361.79956,1288.5624 C 360.33889,1292.7714 359.54096,1297.5015 356.67589,1301.0286 C 353.41869,1302.8637 349.58987,1303.2831 346.14232,1304.6794 C 345.83887,1309.3139 347.98013,1314.0244 346.69312,1318.5624 C 344.73866,1319.9811 342.24092,1318.8819 340.09525,1318.6351 C 334.00066,1317.2042 327.80892,1316.1835 321.76234,1314.5715 C 317.3289,1312.9449 316.3746,1307.4737 312.71864,1304.9199 C 306.92108,1303.1593 300.75254,1303.1344 294.89972,1301.6173 C 293.28294,1301.1562 292.22136,1299.7773 291.03667,1298.6978 C 289.08754,1300.5134 287.23584,1302.648 284.65646,1303.5669 C 279.54042,1301.0019 276.88897,1295.3009 271.96297,1292.464 C 267.67521,1292.1897 263.34467,1292.1899 259.05811,1292.4594 C 255.34585,1293.8227 252.9492,1297.6195 249.02459,1298.5492 C 243.35272,1298.8938 237.73754,1297.6615 232.09796,1297.2538 C 230.85673,1297.22 229.18086,1296.7548 228.45113,1298.1368 C 225.07449,1303.6562 223.95825,1310.5195 219.73605,1315.5004 C 215.09019,1317.2296 209.90771,1316.9179 205.28374,1318.7258 C 201.98257,1321.5451 201.49139,1326.6369 197.79476,1329.1343 C 194.119,1330.8026 190.13569,1331.6645 186.39265,1333.1762 C 189.02747,1335.8888 192.11861,1338.1339 194.54575,1341.0607 C 192.75698,1344.2169 189.63395,1346.1699 186.92594,1348.4507 C 183.72556,1350.9349 180.7653,1353.7352 177.4465,1356.0675 C 175.9085,1357.4145 174.0614,1355.8489 173.25794,1354.4625 C 169.48998,1348.3532 166.26517,1341.9249 162.55978,1335.784 C 161.72182,1334.2573 160.01601,1333.654 158.52967,1332.9878 C 154.76896,1331.4444 151.1093,1329.6054 147.15815,1328.5879 C 143.77327,1332.2774 141.95844,1338.258 136.42384,1339.2131 C 132.78469,1340.09 129.16621,1341.5032 125.38144,1341.4587 C 122.52682,1339.6408 120.47262,1336.7065 118.75651,1333.8441 C 118.48011,1331.4829 119.57348,1329.277 120.20447,1327.0757 C 121.37914,1323.8152 122.04314,1320.335 123.75827,1317.3039 C 127.21424,1314.7859 131.38557,1313.5468 135.22509,1311.7531 C 139.06031,1310.2474 142.64763,1308.0344 146.70297,1307.1533 C 149.40797,1307.4776 151.3171,1309.8012 153.61125,1311.0914 C 166.574,1298.9703 179.28856,1286.5911 192.2735,1274.4949 C 193.05849,1273.5443 194.32142,1272.7295 194.41459,1271.4172 C 194.78736,1266.2496 194.04383,1261.0302 194.92736,1255.9002 C 200.88192,1254.1622 207.31927,1254.1508 212.92163,1251.2729 C 216.48168,1249.5558 220.38027,1248.4516 223.69249,1246.2829 C 225.2705,1242.6581 223.25807,1237.7346 226.56637,1234.8827 C 233.15884,1229.8326 240.09118,1225.2395 246.74331,1220.2721 C 247.74027,1219.5521 248.52374,1218.4723 248.40345,1217.1969 C 248.49498,1211.5768 248.96606,1205.9702 248.79201,1200.3512 C 248.52076,1195.0359 250.98485,1190.1721 252.16508,1185.1108 C 252.78771,1183.2196 253.00291,1180.2702 255.4973,1180.0089 C 262.19238,1180.5306 268.48301,1184.0285 275.22012,1184.0221 C 278.75636,1180.6289 282.54667,1177.3589 285.47851,1173.4249 C 285.23574,1169.5858 282.19136,1166.6398 281.2974,1162.9757 C 281.43519,1159.9895 282.87937,1157.2419 284.15549,1154.6038 C 284.95138,1152.6457 287.14803,1152.1392 289.01525,1151.8434 C 302.55019,1149.6104 316.09198,1147.4239 329.62538,1145.1818 C 336.17635,1143.8267 342.46382,1146.8463 348.84875,1147.7551 C 351.52301,1148.3132 353.99404,1145.5154 356.56826,1146.8933 C 361.65302,1149.1581 366.40772,1152.1159 371.50761,1154.3669 C 372.89073,1155.0505 374.47854,1154.8946 375.96968,1154.7722 C 387.34937,1153.2567 398.70389,1151.5317 410.10505,1150.1758 C 411.24432,1149.9973 412.62753,1149.8881 413.2231,1148.7191 C 413.01153,1143.6954 411.5549,1138.7607 411.84582,1133.7197 C 411.8789,1132.5127 412.74247,1131.5745 413.43801,1130.6892 C 422.14581,1121.2962 430.6943,1111.7587 439.41458,1102.3769 C 443.76857,1097.4154 448.55744,1092.8403 452.6478,1087.6498 C 452.00503,1086.5309 451.12353,1085.5175 450.80025,1084.2631 C 450.17609,1077.287 450.12959,1070.2827 449.9198,1063.2895 C 449.87556,1059.3112 450.12462,1055.2904 449.31834,1051.3728 C 449.15676,1049.8722 447.63907,1049.2014 446.61579,1048.3543 C 441.15018,1044.6187 435.85083,1040.6461 430.38429,1036.9191 C 426.75763,1033.9851 423.2027,1039.3203 419.32457,1038.4456 C 418.47127,1037.6303 417.83379,1036.6418 417.28863,1035.6245 C 412.86731,1026.9462 408.34451,1018.3187 404.06887,1009.5689 C 402.66179,1007.3454 403.5925,1004.7595 404.34839,1002.5051 C 408.89445,989.6102 413.42305,976.70896 417.90728,963.79384 C 410.32993,959.41338 402.30548,955.84527 394.64046,951.63016 C 392.91436,950.94602 391.97,948.48184 393.71515,947.27401 C 399.61698,942.64106 405.87788,938.46743 411.73593,933.77108 C 409.41336,932.30791 406.70972,931.55522 404.46875,929.97451 C 403.03214,928.86417 403.91295,927.08573 404.38875,925.7358 C 408.21311,916.85461 412.38686,908.11267 416.03874,899.16337 C 416.84588,897.58071 415.31477,896.37225 414.19382,895.55457 C 410.38582,892.82195 406.51724,890.17658 402.70508,887.455 C 401.32982,886.44768 399.80581,885.28668 399.57545,883.47244 C 401.32747,878.20949 404.59478,873.6288 406.78966,868.55548 C 407.71748,866.15327 409.75278,864.27386 412.39456,864.06294 C 419.69153,862.97806 426.89513,861.08334 434.28871,860.763 C 436.54901,863.53417 437.98855,866.82939 439.83983,869.86793 C 441.44,869.27114 443.08418,868.73159 444.55413,867.8417 C 445.70487,865.09822 444.62425,862.0798 444.22105,859.28709 C 441.1186,858.50243 437.9042,858.10428 434.91252,856.94479 C 432.70242,856.11455 432.62018,853.38754 432.06688,851.45872 C 430.88529,846.71367 430.59715,841.71826 428.81682,837.14719 C 426.30974,834.5126 422.39304,833.65663 419.75917,831.1181 C 418.93513,830.09101 418.88875,828.29307 420.02233,827.45571 C 421.85803,825.61627 423.99262,824.10519 425.81552,822.2508 C 419.95477,817.73982 413.73614,813.71818 407.81522,809.29339 C 405.16732,807.40044 404.5664,803.99793 403.46914,801.14717 C 402.1844,797.04023 400.34455,793.10521 399.31848,788.929 C 398.80647,787.35729 400.06807,786.06585 401.38697,785.46399 C 405.6574,783.2645 410.21443,781.66341 414.4063,779.30081 C 413.16552,774.8137 411.30008,770.54534 409.72428,766.17824 C 409.08915,764.22983 408.30481,761.96286 409.48085,760.05602 C 413.08958,753.22465 416.7966,746.44199 420.40477,739.61017 C 420.78262,738.65671 421.46083,737.72195 421.3566,736.65755 C 419.82189,731.66214 415.17885,727.81277 415.19342,722.3373 C 415.11845,715.79644 415.48654,709.25995 415.51552,702.72319 C 415.39823,700.14852 417.90543,698.92422 419.83344,697.90149 C 423.85162,695.8677 427.91022,693.91261 431.8459,691.71606 C 430.66307,686.50109 427.36762,682.06749 426.27759,676.82733 C 429.8515,674.23004 433.95093,672.45871 437.44294,669.73874 C 436.2119,666.86251 434.87547,663.98467 432.80181,661.6097 C 430.01154,663.53087 427.57812,667.64547 423.71251,666.62479 C 421.63126,664.42281 420.52808,661.53874 418.93104,659.00734 C 414.71371,664.0762 411.42792,669.83391 407.4359,675.07194 C 406.57002,676.65166 403.92753,677.14847 402.81571,675.57738 C 400.28657,672.52451 397.42817,669.61694 395.63752,666.05034 C 395.49556,662.5263 397.47916,659.30836 398.0418,655.8616 C 395.3378,657.13826 392.72066,658.64604 389.79964,659.38636 C 386.73088,655.27078 384.59167,650.58262 382.1108,646.11492 C 374.67303,632.452 367.26524,618.77071 359.81442,605.11753 C 357.83674,601.73604 359.97524,598.03482 360.88535,594.6877 C 363.26212,587.77592 364.92539,580.62377 367.54136,573.8004 C 370.9651,567.38853 376.24962,562.16763 379.77066,555.8106 C 382.18385,550.02518 384.08398,544.03329 386.39197,538.20409 C 387.1056,535.99603 389.44022,535.14078 391.29928,534.13059 C 398.27934,530.72138 405.18043,527.15127 412.16861,523.75779 C 419.97882,521.11493 424.69302,513.85264 430.77591,508.72419 C 437.84672,501.48515 445.91151,495.18507 452.37909,487.39527 C 459.05891,482.68623 464.34762,476.3214 470.46244,470.93456 C 476.41564,465.01184 482.75053,459.49065 488.67773,453.53876 C 491.76199,450.3908 495.47045,447.83868 498.12406,444.2808 C 497.72121,440.94585 495.6461,438.08875 494.41716,435.01341 C 491.36455,427.98631 487.9297,421.1264 484.90386,414.09362 C 483.82368,412.02826 485.6737,410.3435 487.08208,409.09855 C 495.73292,401.46158 504.41155,393.85567 513.09169,386.25237 z"
    id="lloegr"
  />
   <!-- EAST MIDLANDS -->
   <g class="region" style="fill: #d3d3d3" id="east-midlands">
   <path
      style="fill-opacity: 1; fill-rule: nonzero; stroke: none; stroke-opacity: 1; stroke-width: 0.2; stroke-miterlimit: 4; stroke-dasharray: none;"
      d="M 1109.2755,1710.5035 C 1109.2755,1710.5035 1110.1568,1721.3697 1110.9688,1725.4062 C 1114.1189,1725.7789 1117.2995,1726.0408 1120.4688,1726.375 C 1120.7748,1729.8064 1120.953,1733.24 1121.2188,1736.6875 C 1124.3866,1738.8714 1127.5031,1741.1365 1130.5312,1743.5312 C 1129.9229,1748.4408 1129.7814,1753.4735 1128.25,1758.2188 C 1122.3774,1763.4056 1115.1403,1766.852 1109.4062,1772.2188 C 1109.0401,1777.0561 1110.8881,1781.761 1111.6875,1786.5 C 1106.6005,1788.0275 1105.3964,1793.2755 1103.7188,1797.6562 C 1098.8475,1797.2246 1094.059,1796.1887 1089.1875,1795.8438 C 1087.3323,1802.2586 1085.1515,1808.5635 1083.0625,1814.9062 C 1073.7427,1822.7122 1062.8564,1828.5474 1053.5625,1836.4375 C 1055.6605,1840.2996 1058.2443,1843.8732 1060.5938,1847.5938 C 1058.0677,1850.8494 1055.5166,1854.1204 1052.6875,1857.125 C 1050.1,1853.3975 1048.5051,1848.8942 1045.0938,1845.8125 C 1035.7653,1847.5924 1026.6711,1850.8368 1017.8125,1854.25 C 1017.7565,1857.4747 1017.8188,1860.7284 1017.8125,1863.9688 C 1012.2699,1866.1102 1006.7833,1868.481 1001,1869.9062 C 998.37885,1862.6484 996.10887,1855.286 993.5,1848.0312 C 996.97935,1846.4272 1000.4531,1844.7776 1003.75,1842.8125 C 1000.8038,1836.9378 995.62194,1832.6466 992.4375,1826.9688 C 991.16105,1821.0728 997.90323,1820.7417 1001.9688,1820.5312 C 1001.824,1816.4048 1000.8629,1812.3812 1000,1808.375 C 1002.4104,1806.2173 1005.9795,1804.6822 1006.8125,1801.2812 C 1008.0677,1795.6128 1009.3765,1789.5066 1007.1562,1783.9062 C 1008.6137,1782.6995 1011.0225,1780.6761 1012.4884,1779.4792 C 1012.4884,1779.4792 1011.2201,1775.247 1007.9375,1770.1562 C 1002.8926,1762.1885 999.54361,1753.2448 994.28125,1745.4375 C 982.40217,1736.2115 965.25382,1733.2738 957.09375,1719.625 C 957.24359,1715.2233 958.69385,1710.9653 959.125,1706.5938 C 951.44461,1701.1448 943.58858,1695.9826 935.4375,1691.25 C 940.09296,1683.7672 946.48647,1677.5541 951.53125,1670.3438 C 952.68743,1668.903 952.7836,1667.0313 953.15625,1665.3125 C 940.74961,1660.0424 927.73446,1656.3184 915.5,1650.6562 C 915.9138,1643.6126 916.3874,1636.5918 916.9375,1629.5625 C 919.86172,1627.2154 925.49891,1625.9497 924.59375,1621.1875 C 923.20572,1609.3435 922.48784,1597.3098 920,1585.6562 C 915.17514,1581.4969 909.11741,1579.1102 903.75,1575.75 C 900.57763,1573.6155 896.0174,1572.2013 895.125,1568 C 892.74753,1559.1452 890.71151,1550.19 888.5625,1541.2812 C 886.40528,1534.266 893.67584,1527.6345 889.625,1520.8438 C 894.75928,1513.0363 899.53501,1504.9966 905.125,1497.5 C 908.85817,1499.4185 912.85044,1501.4531 914.9375,1505.3125 C 923.21126,1518.8796 931.93563,1532.1714 940.09375,1545.8125 C 941.73582,1547.9173 942.93848,1551.5012 945.96875,1551.7188 C 955.84725,1551.0579 965.60891,1549.3227 975.4375,1548.125 C 980.06864,1547.7023 985.07105,1545.8742 989.46875,1548.2812 C 994.93138,1550.8095 997.81675,1551.7484 1001.6667,1553.5486 C 1004.6834,1554.8396 1004.7949,1553.5963 1006.6001,1551.7732 C 1007.7339,1550.6281 1009.1842,1548.1513 1010.3438,1546.4375 C 1014.0653,1539.9119 1018.0457,1533.5219 1022.0312,1527.1562 C 1024.5934,1522.5976 1031.3665,1524.39 1034.1875,1520.125 C 1036.648,1516.9017 1039.1014,1513.9162 1041.3125,1510.25 C 1043.431,1506.4913 1059.3814,1516.0753 1060.8532,1510.5646 C 1063.4043,1504.6266 1066.8097,1500.2077 1070.1208,1495.5151 C 1073.2304,1496.2627 1077.3067,1496.6367 1084.0412,1495.9083 C 1088.5826,1497.2727 1082.4255,1504.7569 1083.291,1510.035 C 1092.8549,1509.4113 1099.4917,1505.9555 1105.7816,1504.1365 C 1112.2401,1495.5503 1119.995,1488.4561 1123.5483,1486.2344 C 1123.5483,1486.2344 1152.9993,1512.9131 1152.9993,1512.9131 C 1156.553,1516.5499 1171.2444,1487.3198 1175.5499,1489.9717 C 1178.0947,1491.5391 1180.6252,1493.1284 1182.9688,1494.9688 C 1186.3866,1497.8399 1190.5961,1499.439 1194.375,1501.75 C 1197.056,1503.3498 1198.2497,1506.3765 1199.5625,1509.0625 C 1207.326,1526.5555 1215.2367,1543.9953 1223.1875,1561.4062 C 1224.5446,1564.3591 1226.0961,1567.4494 1225.7812,1570.8125 C 1225.3725,1578.1771 1224.4535,1585.5105 1223.9688,1592.875 C 1223.9856,1595.578 1222.5224,1597.9324 1220.8125,1599.9062 C 1209.0796,1613.0848 1197.1806,1626.0856 1185.5,1639.3125 C 1183.3237,1641.1741 1182.0778,1645.4016 1185.1875,1647 C 1196.5999,1654.2356 1208.9112,1660.0236 1220.3438,1667.25 C 1217.1519,1671.4545 1214.2702,1675.9737 1210.5,1679.6875 C 1204.3048,1682.7301 1197.1785,1682.3481 1190.7188,1684.4062 C 1186.9415,1688.9253 1186.9557,1695.4292 1185.25,1700.9062 C 1178.2556,1698.6112 1170.8515,1699.2925 1163.625,1699.25 C 1155.887,1699.2624 1146.5023,1699.7986 1138.7708,1699.743 C 1131.6765,1700.0195 1109.2755,1710.5035 1109.2755,1710.5035 z"
      transform="matrix(0.69138, 0, 0, 0.69138, -95.1556, -268.577)"
    />
  </g>
   <!-- END OF EAST MIDLANDS -->
   <!-- LONDON -->
   <g class="region" style="fill:#d3d3d3" id="greater-london">
    <path
      style="fill-opacity:1;fill-rule:nonzero;stroke:none"
      d="M 710.25743,1074.1186 C 714.35875,1071.5802 719.35761,1072.6028 723.91452,1072.6043 C 724.49999,1074.6383 724.21163,1077.2348 726.01514,1078.7073 C 728.5938,1080.9319 731.18032,1083.1747 733.96277,1085.1557 C 735.21895,1086.2794 736.91641,1085.5627 738.36674,1085.321 C 743.39759,1084.1008 748.31997,1082.3225 753.51041,1081.849 C 754.94227,1085.4139 756.39796,1088.9764 757.59447,1092.6369 C 755.2666,1095.9989 752.12774,1098.7229 749.92148,1102.1687 C 747.4686,1109.8635 744.40236,1117.3653 741.71629,1124.9906 C 740.59681,1128.6678 737.53561,1131.5723 734.06188,1133.0329 C 730.60043,1132.509 727.78437,1129.9989 724.50926,1128.8484 C 721.9129,1131.0492 719.53039,1133.4821 717.06432,1135.8246 C 715.41157,1133.7522 713.928,1131.5579 712.46612,1129.3617 C 710.43762,1129.1067 708.40711,1128.9304 706.38835,1128.6926 C 705.58109,1126.3982 704.90797,1124.043 703.78409,1121.889 C 700.72144,1121.7141 699.37532,1125.4535 697.26335,1127.2115 C 697.15398,1124.9035 698.41203,1121.8161 695.97918,1120.333 C 689.99348,1116.0752 683.50387,1112.5438 677.58362,1108.203 C 677.1574,1104.0458 680.30512,1100.3906 680.55021,1096.2761 C 679.82984,1093.2047 678.42657,1090.356 677.51357,1087.3501 C 682.29014,1086.3323 687.30738,1086.6066 691.98189,1085.1392 C 698.27757,1081.8301 704.09505,1077.6692 710.25743,1074.1186 z"
    />
  </g>
   <!-- END OF LONDON -->
   <!-- SOUTH WEST -->
   <g class="region" style="fill: #d3d3d3" id="south-west">
    <path
      style="fill-opacity: 1; fill-rule: nonzero; stroke: none; stroke-opacity: 1;"
      d="M 933.23841,1935.1645 C 933.23841,1935.1645 932.96344,1938.024 932.87463,1940.6686 C 932.83212,1943.3594 934.40625,1947.0938 934.40625,1947.0938 C 942.43942,1964.2274 949.65958,1981.7346 958.40625,1998.5312 C 956.50109,2000.6636 954.57803,2002.8199 952.71875,2005 C 955.13409,2015.3323 961.01472,2024.9502 960.53125,2035.8438 C 960.40636,2038.998 960.85806,2042.3752 959.59375,2045.375 C 952.1538,2049.1914 943.8727,2051.056 936.46875,2054.9688 C 939.15876,2071.7758 941.68146,2088.5947 944.15625,2105.4375 C 944.69699,2109.7446 946.92867,2115.1329 942.34375,2118.0625 C 934.03454,2114.0639 926.3104,2108.9959 918.09375,2104.8438 C 914.33718,2102.7318 910.08137,2104.6168 906.12797,2104.9747 C 901.40329,2105.871 897.9401,2106.2174 897.9401,2106.2174 C 894.86774,2107.2869 894.38865,2109.0338 895.84375,2111.4375 C 899.65584,2116.9184 903.01632,2122.689 906.625,2128.3125 C 908.90483,2128.6318 911.19962,2128.9548 913.5,2129.25 C 912.33672,2134.0092 911.15227,2138.7837 910.71875,2143.6875 C 913.04402,2144.0129 915.37531,2144.3284 917.71875,2144.6562 C 919.41715,2151.8742 920.65167,2159.2229 922.78125,2166.3438 C 924.86749,2165.9507 926.93558,2165.392 929.0625,2165.1875 C 931.16746,2166.6237 932.50873,2168.8508 933.96875,2170.9062 C 922.76968,2175.7387 909.94256,2173.921 898.53125,2177.8438 C 894.89372,2184.6392 896.50733,2192.9312 894.78125,2200.3125 C 873.14354,2198.1581 851.64443,2194.5669 830.03125,2192.125 C 827.60504,2191.9378 824.9145,2191.5643 822.8125,2193.0938 C 821.00518,2196.7469 820.10976,2200.7687 818.8125,2204.625 C 802.74263,2195.0267 787.57358,2184.0039 771.78125,2173.9688 C 764.99822,2170.2067 756.85325,2171.4858 749.625,2169.2188 C 749.625,2169.2188 744.5974,2168.5943 743.125,2169.5312 C 733.66504,2173.3489 724.49355,2178.1126 714.40625,2180.0938 C 708.20205,2181.6441 701.85532,2182.7199 695.71875,2184.5312 C 689.0627,2186.2536 686.51701,2193.5259 681.34375,2197.375 C 676.64877,2198.754 671.50534,2197.7036 666.90625,2199.5312 C 664.34552,2201.1514 663.46576,2204.279 662.21875,2206.875 C 659.78718,2212.8568 656.68112,2218.5502 654.3125,2224.5625 C 652.82662,2227.7122 654.64287,2231.018 655.28125,2234.1562 C 652.24462,2237.088 647.25435,2238.8478 646.0625,2243.1562 C 647.55155,2247.3886 651.59902,2250.097 654.375,2253.5 C 653.02289,2257.3996 651.98474,2261.5155 649.84375,2265.0938 C 645.01203,2268.1545 638.93804,2268.254 633.90625,2270.9062 C 632.30818,2271.7016 631.67363,2273.7358 631.875,2275.4375 C 632.32606,2280.3177 633.09281,2285.1682 633.1875,2290.0938 C 624.58968,2288.8039 616.13037,2286.8372 607.65625,2284.9375 C 599.12401,2283.6021 599.09267,2271.2335 590.625,2269.7188 C 582.4818,2268.1036 574.20767,2267.0699 566.0625,2265.4688 C 565.23059,2263.2313 564.67698,2260.8775 563.4375,2258.8438 C 561.75728,2257.8035 559.93261,2257.0888 558.15625,2256.2812 C 556.37989,2255.4736 552.47837,2251.9991 553.125,2254.4375 C 553.77163,2256.8759 554.73538,2259.381 554.3125,2261.9688 C 552.92556,2263.6869 551.24413,2265.1477 549.59375,2266.625 C 544.91985,2262.5133 540.81584,2257.821 536.15625,2253.7188 C 533.45096,2251.2332 529.56835,2251.8381 526.21875,2251.7188 C 521.09964,2251.8292 515.97649,2251.4718 510.875,2251.9688 C 504.18049,2253.608 500.22302,2262.0253 492.6875,2260.8438 C 483.53657,2260.6632 474.12172,2257.252 465.125,2259.375 C 459.46826,2267.208 457.51361,2277.147 452.40625,2285.3438 C 446.07862,2288.6775 438.4283,2287.6533 431.78125,2290.0938 C 425.97525,2293.669 425.4772,2301.7697 420.1875,2305.8125 C 413.49321,2308.9797 405.86543,2309.8607 399.34375,2313.4062 C 398.84276,2314.1811 397.84472,2315.7564 397.34375,2316.5312 C 401.55477,2320.9413 406.95609,2324.0733 410.78125,2328.875 C 404.82418,2333.7464 399.0982,2338.9583 392.6875,2343.25 C 387.47139,2334.9795 383.0195,2326.2585 378.0625,2317.8438 C 374.75049,2311.9291 367.54918,2310.6768 361.90625,2307.9688 C 357.56847,2306.384 353.44956,2303.6452 348.71875,2303.5312 C 343.42871,2307.4743 341.32517,2314.3479 336.25,2318.5312 C 331.39899,2320.6028 326.12818,2322.1542 320.84375,2322.4375 C 318.33175,2320.2165 314.64066,2317.3325 316,2313.5312 C 317.21659,2308.9213 318.67839,2304.337 320.40625,2299.9062 C 321.57849,2296.9075 324.88517,2295.8709 327.53125,2294.5938 C 334.96791,2291.5419 342.19824,2287.9634 349.78125,2285.2812 C 353.11473,2287.4312 356.15828,2290.3244 360.0625,2291.4062 C 361.69763,2290.8603 363.17082,2289.9141 364.4375,2288.7812 C 376.80014,2276.6583 389.69157,2265.0875 401.9375,2252.8438 C 409.26673,2245.5311 417.79275,2239.3357 424.1875,2231.1562 C 425.68209,2224.1485 424.19556,2216.7939 425.1875,2209.6875 C 432.52372,2208.2351 440.08375,2207.4378 446.90625,2204.1562 C 453.08727,2201.1981 459.75375,2199.1701 465.59375,2195.5625 C 469.99667,2191.2463 466.62176,2183.7425 469.625,2178.875 C 479.49289,2171.0601 490.15691,2164.2593 500.09375,2156.5312 C 502.3739,2154.8365 503.05022,2151.9317 503,2149.25 C 503.068,2139.5498 503.12011,2129.8362 503.6875,2120.1562 C 503.65608,2119.8027 504.80644,2116.3647 505.15625,2115.25 C 506.15672,2110.6144 507.41659,2106.0642 508.96875,2101.5938 C 518.27613,2102.7975 527.04433,2106.9032 536.4375,2107.5 C 540.94041,2105.6752 543.70589,2101.3007 547.25,2098.1562 C 550.78804,2094.2506 555.57914,2091.048 557.4375,2085.9375 C 556.51882,2079.9913 551.75913,2075.4141 550.875,2069.5 C 551.64687,2065.9492 552.4939,2060.5713 557.03125,2060.3125 C 573.83923,2057.3237 590.74263,2054.8394 607.5625,2051.9062 C 611.36459,2051.3352 615.27882,2050.4496 619.15625,2050.3125 C 621.48271,2050.2302 623.78181,2050.4333 626.0625,2051.125 C 628.34319,2051.8167 629.21386,2052.1305 632.0625,2052.5625 C 637.00624,2053.3219 641.98946,2055.3157 647.03125,2054.125 C 649.19354,2053.8154 651.5624,2052.7561 653.625,2054.0312 C 660.04603,2056.9436 666.09443,2060.6391 672.46875,2063.6562 C 676.17155,2065.4102 680.39113,2064.645 684.3125,2064.2812 C 700.95837,2062.0402 717.59062,2059.6764 734.25,2057.5312 C 736.83706,2057.0445 740.52719,2056.7527 741.28125,2053.6562 C 741.89998,2046.0035 739.22813,2038.5326 739.125,2030.9062 C 738.876,2028.8569 740.54419,2027.458 741.71875,2026.0625 C 753.69533,2012.9227 765.70895,1999.798 777.75,1986.7188 C 777.75,1986.7188 781.09375,1983.0312 781.09375,1983.0312 C 781.09375,1983.0312 785.53125,1979.0312 785.53125,1979.0312 C 785.53125,1979.0312 788.53125,1975.4062 788.53125,1975.4062 C 794.20982,1968.7973 799.71392,1962.0464 804.21875,1954.5625 C 807.29854,1949.1062 812.66235,1944.827 813.90625,1938.4688 C 813.04376,1937.8501 811.29999,1936.6186 810.4375,1936 C 804.37631,1939.5837 801.10676,1946.2004 795.28125,1950.0625 C 794.367,1936.5467 794.39726,1922.9665 793.78125,1909.4375 C 801.18413,1904.8062 808.72474,1900.4047 816.28125,1896.0312 C 818.4252,1894.6448 820.82372,1893.4684 822.40625,1891.4062 C 823.10827,1883.1087 821.53006,1874.8223 821.40625,1866.5312 C 827.61034,1866.5543 833.96906,1865.9294 840.03125,1867.5938 C 843.47489,1869.9136 846.14277,1873.1975 849.25,1875.9375 C 856.70869,1873.5893 863.60222,1869.6897 871.125,1867.5625 C 887.13183,1865.723 903.39999,1866.6856 919.375,1864.8125 C 919.59139,1864.153 920.0024,1862.8159 920.21875,1862.1562 C 917.47574,1857.8576 913.93998,1854.1559 910.96875,1850.0312 C 915.45349,1847.3256 920.21083,1845.1147 924.96875,1842.9375 C 929.53095,1847.4349 933.91035,1852.1197 938.3125,1856.7812 C 942.03764,1860.0281 940.36002,1865.4282 940.625,1869.75 C 938.45719,1894.3253 935.84858,1910.6302 933.23841,1935.1645 z M 211,2334.875 L 207.6875,2338.4688 L 208.4375,2339.1562 L 205.4375,2337.875 L 199.125,2343.2812 L 200.3125,2348.6875 L 204.09375,2344.9375 L 203.9375,2350.0625 L 207.25,2351.25 L 209.34375,2348.4062 L 213.71875,2346.2812 L 210.03125,2340.625 L 211.15625,2341.625 L 215.0625,2340.5938 L 219.40625,2345.0938 L 222.71875,2346.1562 L 226.03125,2343 L 219.28125,2335.9062 L 211,2334.875 z M 214.3125,2347.0625 L 211.4375,2353.5 L 212.0625,2356.0312 L 211.75,2355.625 L 206.78125,2354.7188 L 204.21875,2355.625 L 201.375,2354.875 L 201.0625,2357.4375 L 203.625,2362.8438 L 210.53125,2362.25 L 212.65625,2356.8125 L 212.09375,2356.0625 L 215.5,2357.4375 L 220.625,2352.625 L 220.46875,2348.5625 L 214.3125,2347.0625 z M 196.40625,2358.3125 L 194,2359.8438 L 196.5625,2363.875 L 201.96875,2363.875 L 202.4375,2361.1875 L 199.28125,2360.5938 L 196.40625,2358.3125 z M 190.40625,2359.2188 L 188.125,2361.7812 L 189.9375,2364.3438 L 191.28125,2364.6562 L 194,2362.5312 L 190.40625,2359.2188 z"
      transform="matrix(0.69138, 0, 0, 0.69138, -95.1556, -268.577)"
    />
  </g>
      <!-- END OF SOUTH WEST -->  
    <path
    id="path6139"
    d="M 280.44721,826.53367 L 288.32461,820.47414 L 301.95857,808.65804"
    style="fill: none; fill-rule: evenodd; stroke: rgb(255, 255, 255); stroke-width: 3.99922; stroke-linecap: butt; stroke-linejoin: miter; stroke-miterlimit: 4; stroke-dasharray: none; stroke-opacity: 1;"
  />
      <g
    transform="matrix(0.476813, 0, 0, 0.476813, -127.859, 299.791)"
    id="g7239"
    style="stroke: rgb(255, 255, 255); stroke-width: 6.23501; stroke-miterlimit: 4; stroke-dasharray: none; stroke-opacity: 1; fill: #d3d3d3; fill-opacity: 1;"
  >
      <!-- NORTHERN IRELAND -->
      <g class="region" style="fill: #d3d3d3" id="northern-ireland">
      <path
        style="fill-rule: eveånodd; stroke: rgb(255, 255, 255); stroke-width: 6.23501; stroke-linecap: butt; stroke-linejoin: miter; stroke-miterlimit: 4; stroke-dasharray: none; stroke-opacity: 1; fill-opacity: 1;"
        d="M 83.571429,629.50504 L 110.35714,622.71932 L 121.78571,604.1479 L 155.35714,603.07647 L 158.92857,595.21932 L 180.71429,580.93361 L 153.21429,572.36218 L 151.78571,565.21932 L 145.71429,564.1479 L 136.78571,544.50504 L 148.21429,544.50504 L 159.64286,532.00504 L 172.14286,545.93361 L 194.28571,532.71932 L 223.57143,532.00504 L 216.42857,525.57647 L 216.42857,512.36218 L 229.28571,505.57647 L 237.85714,487.36218 L 235,477.00504 L 236.07143,462.71932 L 245.35714,451.29075 L 246.78571,437.36218 L 267.5,416.6479 L 296.78571,416.6479 L 321.07143,426.29075 L 344.28571,367.00504 L 360,376.6479 L 388.57143,378.43361 L 402.5,364.50504 L 425.35714,362.71932 L 443.21429,348.79075 L 465.35714,348.79075 L 495,365.93361 L 515,356.29075 L 534.28572,377.00504 L 533.21429,418.43361 L 540.35714,412.71932 L 551.78572,421.29075 L 552.85714,436.6479 L 548.21429,437.71932 L 550.35714,443.79075 L 556.78572,444.50504 L 583.21429,488.07647 L 587.5,505.57647 L 595.35714,505.93361 L 588.57143,490.21932 L 596.78572,490.21932 L 612.14286,510.93361 L 612.85714,527.71932 L 605,534.50504 L 578.92857,547.00504 L 563.57143,573.79075 L 564.28572,582.00504 L 573.57143,574.86218 L 592.5,557.71932 L 637.14286,557.36218 L 647.14286,584.1479 L 655.35714,589.50504 L 656.07143,610.93361 L 666.07143,620.57647 L 658.57143,675.93361 L 653.57143,674.50504 L 637.14286,657.71932 L 638.21429,647.71932 L 643.92857,643.79075 L 642.5,625.21932 L 637.5,610.57647 L 633.57143,609.86218 L 631.78572,602.36218 L 622.5,597.36218 L 612.5,593.79075 L 610.71429,607.36218 L 616.78572,615.57647 L 624.28572,627.36218 L 626.07143,637.00504 L 624.64286,656.29075 L 610,670.93361 L 612.14286,675.21932 L 623.57143,668.07647 L 633.92857,662.36218 L 651.42857,682.71932 L 621.42857,722.36218 L 611.07143,712.00504 L 584.64286,713.07647 L 573.92857,726.29075 L 578.21429,737.36218 L 573.21429,766.6479 L 533.57143,793.43361 L 523.57143,789.50504 L 525.71429,785.21933 L 515,785.21933 L 502.5,767.71933 L 476.07143,769.1479 L 473.21429,779.50504 L 448.57143,780.93361 L 417.85714,792.00504 L 403.21429,777.00504 L 407.5,769.1479 L 403.92857,762.00504 L 413.21429,748.07647 L 397.14286,729.86218 L 388.92857,740.93361 L 368.57143,707.71932 L 358.57143,702.00504 L 363.21429,697.36218 L 361.78571,678.07647 L 344.28571,667.00504 L 325.35714,656.6479 L 311.07143,677.36218 L 302.14286,681.29075 L 291.78571,693.07647 L 304.28571,709.50504 L 304.28571,723.79075 L 283.21429,730.21932 L 283.57143,748.43361 L 265.71429,767.36218 L 259.28571,765.93361 L 241.42857,749.50504 L 233.92857,758.43361 L 212.85714,758.07647 L 185.71429,729.86218 L 161.07143,731.29075 L 148.92857,724.50504 L 147.14286,698.07647 L 131.07143,694.86218 L 122.14286,671.29075 L 112.5,675.57647 L 83.571429,629.50504 z"
      />
    ></g>
      <!-- END OF NORTHERN IRELAND -->
    </g>
    <path
    style="fill: #d3d3d3; fill-opacity: 1; fill-rule: evenodd; stroke: rgb(255, 255, 255); stroke-width: 2.97293; stroke-linecap: butt; stroke-linejoin: miter; stroke-miterlimit: 4; stroke-dasharray: none; stroke-opacity: 1;"
    d="M 251.57807,647.72465 L 260.25376,636.99032 L 266.28264,624.78553 L 272.45855,616.40392 L 284.95743,610.66914 L 289.95699,612.4337 L 286.57494,620.96234 L 288.19244,627.87349 L 293.33904,636.10805 L 287.45721,646.54828 L 283.92811,655.22399 L 275.39947,661.69399 L 262.60649,675.36924 L 254.51898,673.16356 L 249.07829,674.33992 L 241.87305,679.63356 L 237.75577,677.28083 L 241.28487,672.42832 L 245.99033,664.04672 L 251.57807,647.72465 z"
    id="isle-of-man"
  />
    <g class="region" style="fill: #d3d3d3" id="yorkshire">
    <path
      style="fill-opacity: 1; fill-rule: nonzero; stroke: none; stroke-width: 0.4; stroke-opacity: 1; stroke-miterlimit: 4; stroke-dasharray: none;"
      d="M 1138.7812,1345.5938 C 1139.5174,1347.0728 1145.375,1348.4688 1145.375,1348.4688 C 1149.2985,1349.9698 1152.8241,1352.3689 1156.375,1354.5938 C 1151.199,1358.8083 1145.0215,1361.5942 1139.9375,1365.9062 C 1137.8802,1367.7203 1139.5033,1370.6382 1140.4375,1372.625 C 1153.7444,1397.4812 1167.0577,1422.3307 1180.25,1447.25 C 1183.8315,1454.3001 1188.309,1460.9286 1191,1468.4062 C 1184.4137,1468.0395 1177.8673,1467.1404 1171.3125,1466.5 C 1168.3272,1466.2039 1165.1191,1465.7844 1162.9062,1463.5625 C 1156.074,1457.0902 1149.6592,1450.1755 1142.9062,1443.625 C 1140.8564,1441.7692 1138.3233,1439.5288 1135.3438,1440.1875 C 1129.8043,1441.3126 1124.5612,1443.5642 1119.1562,1445.1562 C 1108.9804,1448.651 1098.406,1450.5486 1087.8809,1452.64 C 1084.7666,1453.2588 1093.8343,1455.466 1099.5135,1457.6055 C 1100.032,1456.5027 1105.0889,1452.0416 1108.4258,1452.7447 C 1116.3458,1451.8766 1131.6659,1445.9062 1129.6195,1447.4487 C 1128.6933,1448.1684 1142.3111,1453.6551 1144.4195,1463.0194 C 1144.794,1464.6829 1168.7176,1479.8522 1172.2826,1486.7664 C 1168.405,1488.6099 1159.2969,1501.0967 1154.0799,1508.2097 C 1154.0799,1508.2097 1123.7972,1480.6689 1123.7972,1480.6689 C 1121.3432,1482.2739 1109.0619,1493.6122 1103.6701,1501.0034 C 1097.8855,1503.0258 1091.4698,1504.2059 1088.354,1505.4378 C 1086.4253,1506.2003 1093.4329,1494.1018 1085.692,1492.0286 C 1083.5817,1492.3124 1073.069,1492.5146 1068.8396,1491.6302 C 1066.3125,1493.1027 1059.6805,1504.5543 1058.3773,1506.6986 C 1056.6856,1510.3565 1042.455,1502.5947 1039.6728,1504.7689 C 1037.0596,1509.2828 1035.4188,1511.0754 1031.6562,1516.3125 C 1028.833,1520.6022 1022.0735,1518.7858 1019.4375,1523.375 C 1013.6,1531.8901 1009.1457,1541.2967 1002.5625,1549.3125 C 996.94686,1547.2247 991.74002,1543.8154 985.84375,1542.625 C 972.69338,1543.681 959.69283,1546.1529 946.5625,1547.5 C 936.84782,1532.2795 929.0924,1521.4897 920.22605,1505.7586 C 919.15085,1504.1694 917.08331,1500.1499 914.66967,1498.8795 C 909.57169,1495.9068 903.8478,1492.9572 900.625,1487.6875 C 895.15452,1479.4551 889.55808,1471.3316 883.875,1463.25 C 881.45291,1458.7233 875.68799,1460.5495 871.53125,1459.8125 C 870.3184,1456.3947 867.98785,1452.8222 869.21875,1449.0938 C 870.74649,1444.2053 872.69037,1439.4584 874.375,1434.625 C 876.56215,1428.0638 882.25344,1424.7447 886.36464,1419.5625 C 886.36464,1419.5625 883.96875,1416.5938 883.96875,1416.5938 C 875.50704,1407.8591 867.72837,1398.4922 859.65625,1389.4062 C 855.1243,1383.7818 847.1092,1384.4772 840.78125,1382.4688 C 840.05348,1378.8562 839.49971,1375.2005 838.78125,1371.5938 C 833.85303,1371.0132 828.91477,1371.0736 823.96875,1370.9688 C 819.87895,1365.027 816.288,1358.7252 813.25,1352.1875 C 817.45436,1345.1085 820.76345,1337.4518 825.6875,1330.8438 C 831.23786,1328.2231 837.50563,1327.6835 843.21875,1325.5 C 845.25976,1325.0531 845.59145,1322.9041 845.59375,1321.1562 C 845.5108,1313.0132 843.68826,1304.8993 844.28125,1296.75 C 845.51137,1292.3449 848.41813,1288.6614 850.53125,1284.6562 C 852.45818,1281.689 853.86412,1277.4534 857.90625,1276.9375 C 866.6821,1274.9666 875.44627,1272.9522 884.28125,1271.25 C 888.82049,1270.0456 891.53336,1275.717 895.75,1275.8125 C 901.01239,1273.1799 905.09066,1268.722 910.28125,1265.9688 C 913.45338,1265.6634 916.60653,1266.552 919.75,1266.9062 C 920.83447,1264.4288 921.59132,1261.77 923.09375,1259.5 C 929.11699,1255.3792 937.11087,1256.7025 943.40625,1259.5312 C 946.64347,1261.7933 948.44556,1265.514 951.0625,1268.4062 C 955.12407,1273.88 961.21082,1274.5214 967.48382,1275.757 C 967.48382,1275.757 995.01834,1263.6287 995.01834,1263.6287 C 995.01834,1263.6287 1043.0365,1265.38 1043.0365,1265.38 C 1043.0365,1265.38 1053.9729,1250.3139 1053.9729,1250.3139 C 1066.3342,1256.3974 1076.6183,1263.4937 1088.8125,1269.9062 C 1093.1648,1272.3981 1095.1185,1277.2514 1097.7812,1281.25 C 1111.326,1302.7718 1125.0161,1324.2114 1138.7812,1345.5938 z"
      transform="matrix(0.69138, 0, 0, 0.69138, -95.1556, -268.577)"
    />
  </g>
  <g class="region" style="fill: #d3d3d3" id="north-east">
      <path
      style="fill-opacity: 1; fill-rule: nonzero; stroke: none; stroke-opacity: 1; stroke-width: 0.2; stroke-miterlimit: 4; stroke-dasharray: none;"
      d="M 958.53125,1126.2188 C 958.53125,1126.2188 974.625,1174.2188 974.625,1174.2188 C 974.625,1174.2188 976.73505,1181.0906 976.73505,1181.0906 C 976.73505,1181.0906 980.82772,1193.9342 983.78125,1200.875 C 985.88836,1205.7417 990.22168,1209.0857 993.875,1212.75 C 998.7584,1217.1222 1003.119,1222.0269 1007.625,1226.7812 C 1007.625,1226.7813 1050.3125,1248.1875 1050.3125,1248.1875 C 1050.3126,1248.1874 1041.0625,1260.9062 1041.0625,1260.9062 C 1041.0625,1260.9063 994.28125,1259.2812 994.28125,1259.2812 C 994.28124,1259.2813 966.34375,1271.8438 966.34375,1271.8438 C 963.99044,1270.9724 958.7529,1269.3186 956.625,1267.9688 C 952.67078,1264.5636 950.4895,1259.4951 946.375,1256.2812 C 941.79851,1253.9201 936.68828,1252.8072 931.6875,1251.75 C 925.75621,1253.0603 918.531,1254.9362 916.75,1261.6562 C 913.83209,1261.6651 910.57742,1260.3903 907.96875,1262.1875 C 903.68661,1264.9692 899.69784,1268.1911 895.5,1271.0938 C 892.58613,1269.5609 890.05357,1266.9702 886.75,1266.4062 C 880.47213,1267.2578 874.39701,1269.4273 868.03125,1269.75 C 867.27025,1264.6969 868.00624,1258.8432 864.34375,1254.75 C 858.78135,1247.8519 852.02672,1242.0127 846.75,1234.875 C 848.27306,1231.9423 849.83361,1229.0014 851.21875,1226 C 848.0753,1222.4262 843.80262,1219.5861 841.625,1215.3125 C 844.56495,1208.0226 850.93171,1197.5428 850.93171,1197.5428 C 850.93171,1197.5428 839.79086,1181.5243 835.25,1175.5625 C 827.82506,1177.843 822.68138,1184.1308 816.03125,1187.8438 C 812.94367,1182.5252 809.57089,1177.3018 807.1875,1171.625 C 808.21984,1167.3346 811.68237,1163.9439 813.75,1160.0625 C 812.80466,1156.758 811.42321,1153.536 811.09375,1150.0938 C 814.4966,1142.7278 819.85865,1136.4284 823.53125,1129.1875 C 815.53809,1118.1234 805.80826,1108.4373 797.90625,1097.3125 C 804.93477,1089.6541 812.97542,1083.0355 820.375,1075.75 C 830.6346,1065.3902 841.60566,1055.7552 851.9375,1045.4688 C 856.26706,1041.2073 861.21996,1037.4372 864.65625,1032.375 C 865.17464,1028.4222 862.35794,1024.8063 860.96875,1021.2188 C 856.39299,1011.5337 852.03934,1001.7656 847.4375,992.09375 C 846.58673,989.9557 845.19282,987.79429 845.4375,985.40625 C 852.62499,978.26565 860.68215,972.03783 868.125,965.15625 C 873.50032,960.73257 878.43065,955.80732 884.03125,951.65625 C 902.27759,969.04022 919.80942,987.17275 937.59375,1005.0312 C 939.92882,1007.0364 940.7256,1010.0739 941.15625,1013 C 946.84609,1050.759 952.63457,1088.4906 958.53125,1126.2188 z"
      transform="matrix(0.69138, 0, 0, 0.69138, -95.1556, -268.577)"
    />
  </g>
    <g style="fill: #d3d3d3; fill-opacity: 1;" class="region" id="north-west">
      <path
      style="fill-opacity: 1; fill-rule: nonzero; stroke: none; stroke-opacity: 1; stroke-width: 0.3; stroke-miterlimit: 4; stroke-dasharray: none;"
      d="M 826.00526,1325.8017 C 823.19225,1326.8267 822.13925,1327.6771 819.59969,1332.0431 C 819.59969,1332.0431 811.74089,1345.0566 808.75,1352.125 C 811.37799,1360.3372 816.73514,1367.6046 821.40625,1374.8438 C 825.80402,1375.0032 830.228,1374.7156 834.59375,1375.4375 C 836.47769,1378.6087 835.23254,1383.033 837.5,1385.875 C 842.77021,1387.9761 848.6879,1387.9124 853.90625,1390.1875 C 856.64264,1392.0305 858.64575,1394.7329 860.8125,1397.1875 C 867.20905,1404.8702 874.35442,1411.9555 880.3125,1420 C 876.73393,1423.9736 871.99323,1427.315 870.5,1432.7188 C 868.61105,1438.9304 865.44544,1444.7781 864.28125,1451.1875 C 864.68203,1454.5881 867.92012,1460.2056 868.32047,1463.5794 C 868.32047,1463.5794 875.01596,1463.99 875.34375,1464 C 875.34375,1464 876.39137,1464.0104 876.39137,1464.0104 C 879.5332,1463.9133 881.21904,1466.9996 882.875,1469.1875 C 888.86055,1477.9 894.76335,1486.6402 900.8125,1495.3125 C 895.20467,1504.8097 888.8067,1513.8162 883.09375,1523.25 C 884.18919,1525.108 885.33088,1526.9278 886.46875,1528.7812 C 885.54245,1530.5022 884.38239,1533.5134 884.38239,1533.5134 C 883.84317,1535.6327 883.53796,1539.9036 883.91066,1541.0905 C 886.72953,1552.0298 889.57563,1560.2216 890.65625,1571.5 C 883.86845,1574.8099 876.62943,1577.3582 870.3125,1581.5312 C 864.44248,1587.2593 859.58225,1593.9994 853.46875,1599.5 C 847.68387,1603.8783 840.28921,1605.7222 834.75,1610.4375 C 832.74336,1614.676 834.22151,1620.1269 831.65625,1624.0312 C 824.20405,1628.7287 816.21768,1632.6747 808.21875,1636.375 C 806.30582,1631.9245 804.14304,1627.6074 801.53125,1623.5312 C 795.19726,1624.5084 788.79823,1628.8629 782.40625,1626.0312 C 778.12527,1624.639 773.70005,1623.7407 769.375,1622.5312 C 767.40285,1614.8653 765.9932,1607.0819 764.375,1599.3438 C 763.34488,1592.824 755.8629,1591.4537 751.5,1587.7188 C 754.2589,1585.2093 757.30325,1583.022 759.875,1580.3125 C 761.58418,1578.8403 761.42348,1575.8907 759.40625,1574.7812 C 750.62155,1567.6172 740.63013,1562.0063 732.0625,1554.5625 C 732.0625,1554.5625 729.03125,1550.6562 729.03125,1550.6562 C 726.17467,1543.6985 723.16163,1536.716 721.8125,1529.2812 C 728.78049,1525.8618 736.25986,1523.315 742.78125,1519.0625 C 742.95319,1518.5143 743.2968,1517.4232 743.46875,1516.875 C 741.89784,1507.9977 736.81252,1500.0839 735.09375,1491.25 C 740.35223,1480.6001 745.76161,1469.9631 751.96875,1459.8125 C 751.96875,1459.8125 756.53125,1459.75 756.53125,1459.75 C 754.78075,1450.3127 746.40414,1443.6683 744.1875,1434.375 C 743.7477,1424.4717 744.40514,1414.5475 744.9375,1404.6562 C 751.57561,1400.9834 758.48061,1397.7885 765.1875,1394.25 C 767.3622,1393.1211 769.9673,1390.9565 768.84375,1388.1875 C 766.83897,1381.8036 762.82451,1376.1397 761.5625,1369.5 C 766.33356,1366.6019 771.45635,1364.2573 776,1361 C 777.96194,1359.8058 777.24183,1357.2233 776.4375,1355.5625 C 774.12361,1350.7886 771.36628,1346.2424 769.3125,1341.3438 C 769.3125,1341.3438 767.4375,1337.2188 767.4375,1337.2188 C 761.75148,1338.1068 757.84201,1342.7102 753.5,1346.0312 C 750.5067,1342.4391 748.88612,1337.9283 745.875,1334.375 C 744.44435,1333.9463 742.99629,1333.6359 741.53125,1333.4062 C 735.55853,1341.5796 730.59893,1350.5265 724,1358.2188 C 720.11921,1358.5768 717.77659,1353.3991 716.15625,1350.375 C 716.80814,1343.7587 720.51088,1337.8797 721.5625,1331.3438 C 721.37922,1329.2257 720.23928,1328.0388 718.125,1327.7812 C 713.11736,1329.5861 708.7495,1332.7361 703.9375,1334.9688 C 699.90435,1329.0274 696.90455,1322.4816 693.375,1316.25 C 683.83874,1298.7676 674.37289,1281.2317 664.78125,1263.7812 C 663.87455,1261.7467 662.20248,1259.6309 663.1875,1257.3125 C 666.15351,1247.324 669.35599,1237.389 672.34375,1227.4062 C 674.71455,1217.8336 681.87494,1210.6411 687.25,1202.6875 C 693.36334,1195.6063 695.36071,1186.3005 698.71875,1177.8125 C 700.3945,1173.9352 700.84939,1168.6869 705.21875,1166.7812 C 714.01371,1162.319 722.8502,1157.9437 731.6875,1153.5625 C 734.78059,1151.7914 738.6862,1152.2984 741.6875,1150.5 C 759.19513,1133.9168 776.64876,1117.2787 794.15625,1100.6875 C 802.76712,1109.8335 810.42571,1119.819 818.5,1129.4375 C 815.10163,1135.4138 811.02872,1140.9875 807.59375,1146.9375 C 805.02764,1151.0373 808.73192,1155.4529 808.75,1159.75 C 807.04336,1163.5851 803.89435,1166.6001 802.375,1170.5312 C 802.49123,1172.7202 803.74525,1174.6088 804.6875,1176.5312 C 807.92079,1182.278 810.88584,1188.2162 814.6875,1193.625 C 821.5912,1190.1838 827.16419,1184.6879 833.71875,1180.6875 C 838.07712,1186.0675 841.79725,1191.9167 845.75,1197.5938 C 842.89859,1203.9863 838.22896,1209.8024 836.9375,1216.75 C 838.85277,1220.8882 842.92838,1223.5754 845.84375,1227.0312 C 844.73651,1229.9791 841.56085,1232.8594 842.28125,1236.0625 C 847.70731,1244.3857 855.85666,1250.5098 861.71875,1258.5 C 863.90645,1262.3865 863.19941,1267.0818 863.5,1271.375 C 859.88764,1272.1403 856.14424,1272.6131 852.75,1274.125 C 849.48995,1276.7442 848.03744,1280.8822 845.8125,1284.3125 C 843.7218,1288.3573 840.58136,1292.0538 839.78125,1296.625 C 839.69852,1304.9781 840.99082,1313.279 841.3125,1321.625 C 835.78769,1323.3095 830.12771,1324.5147 826.00526,1325.8017 z"
      transform="matrix(0.69138, 0, 0, 0.69138, -95.1556, -268.577)"
    />
    </g>
    <g class="region" id="g2711" style="fill: #d3d3d3; fill-opacity: 1;" id="west-midlands">
      <path
      style="fill-opacity: 1; fill-rule: nonzero; stroke: none; stroke-opacity: 1; stroke-width: 0.4; stroke-miterlimit: 4; stroke-dasharray: none;"
      d="M 836.76342,1623.6191 C 835.95811,1625.981 834.71156,1627.3907 832.10717,1628.8066 C 823.34843,1632.9068 815.54695,1638.2611 806.625,1642.0312 C 804.04817,1637.7807 801.92655,1633.3108 799.84375,1628.8125 C 795.39213,1629.4778 791.02072,1630.6325 786.78125,1632.125 C 786.76764,1636.898 788.44775,1642.0677 786.5625,1646.5938 C 782.63102,1650.1159 777.41496,1652.2227 772.34375,1653.5312 C 767.62834,1650.1617 766.04869,1644.1563 762.875,1639.5312 C 755.083,1640.5039 747.3693,1641.9186 739.625,1643.1875 C 736.61803,1643.7831 732.76929,1644.0876 731.4375,1647.375 C 728.30997,1653.5411 724.67513,1659.5053 722.3125,1666.0312 C 730.26024,1672.5407 739.18256,1677.7337 747.03125,1684.375 C 745.44153,1691.9487 741.4724,1698.6814 738.5625,1705.7812 C 735.20459,1713.866 731.07832,1721.6431 728.3125,1729.9688 C 732.8216,1732.0646 737.49157,1733.6986 742,1735.8125 C 741.52459,1737.5627 742.06764,1739.9706 740.4375,1741.2188 C 731.94373,1748.1397 722.24705,1753.5711 714.34375,1761.2188 C 725.26734,1766.9974 738.30456,1773.8041 749.4701,1779.11 C 749.4701,1779.11 747.03125,1786.25 747.03125,1786.25 C 741.29908,1802.8129 735.5095,1819.3632 729.625,1835.875 C 728.64385,1838.8816 727.3281,1841.8467 727.21875,1845.0625 C 728.65031,1849.7265 731.32125,1853.903 733.5,1858.25 C 738.07418,1866.7045 741.91685,1875.5549 746.75,1883.875 C 750.46192,1882.6665 754.01769,1880.7892 757.9375,1880.3438 C 761.19743,1881.3108 763.84936,1883.5789 766.625,1885.4688 C 775.36885,1891.9386 784.42472,1897.9959 793.125,1904.5312 C 801.59279,1899.8221 809.87937,1894.7857 818.15625,1889.75 C 818.71525,1880.6206 816.67332,1871.5458 817.46875,1862.4375 C 822.95745,1862.011 827.41852,1862.38 832.9212,1862.1681 C 837.24539,1861.8253 841.71704,1864.2305 841.71704,1864.2305 C 846.0304,1866.8691 846.2006,1867.4661 849.78125,1871 C 855.4277,1869.295 860.7453,1866.7273 866.21875,1864.5625 C 871.90797,1862.0782 878.23688,1863.0838 884.25,1862.5 C 894.10992,1861.6504 904.03659,1862.104 913.875,1860.9375 C 911.00776,1856.9637 907.45444,1853.4619 905.1875,1849.0938 C 908.96552,1844.4896 915.35278,1843.205 920.28125,1840.0938 C 920.28125,1840.0938 925.74684,1837.3266 925.74684,1837.3266 C 925.74684,1837.3266 931.40674,1842.768 933.875,1845.875 C 937.34949,1850.1713 942.28214,1853.3839 944.75,1858.4375 C 945.39538,1863.6568 944.86253,1868.9336 944.96875,1874.1875 C 949.29416,1871.6534 954.08295,1869.6294 957.65625,1866.0312 C 962.39903,1856.316 963.8592,1845.195 969.09375,1835.6875 C 973.34559,1836.6369 977.54402,1837.8588 981.78125,1838.9062 C 985.13598,1832.79 986.15691,1825.6849 989.9375,1819.7812 C 991.20483,1816.9196 994.81471,1817.3186 997.34375,1816.4062 C 996.49336,1813.1073 995.70223,1809.762 995.03125,1806.4375 C 997.51948,1804.3894 1000.5409,1802.901 1002.5312,1800.3125 C 1003.7351,1796.9763 1003.6573,1793.359 1003.9375,1789.875 C 1001.5014,1789.0557 996.26902,1790.19 997.3125,1786.1562 C 1000.1396,1783.096 1003.8582,1781.0598 1006.9688,1778.3125 C 1002.5686,1769.3287 997.66782,1760.5951 993.1875,1751.6562 C 991.14106,1746.7975 985.67651,1745.3058 981.5625,1742.75 C 970.8934,1736.7468 957.94923,1732.0283 952.5,1720.1562 C 952.65889,1716.2868 953.83947,1712.5441 954.625,1708.7812 C 952.52167,1707.2961 950.3943,1705.8333 948.25,1704.4375 C 948.25,1704.4375 943.5625,1701.5625 943.5625,1701.5625 C 939.30992,1698.5947 934.64231,1696.2051 930.6875,1692.8438 C 929.84207,1690.1627 932.10286,1688.0193 933.5,1686.0312 C 938.33465,1680.2129 943.13684,1674.3496 947.65625,1668.2812 C 936.0295,1662.2893 923.09874,1659.3619 911.3125,1653.7188 C 911.32796,1645.8719 912.22857,1638.0507 912.53125,1630.2188 C 912.41547,1625.7696 917.36635,1624.3762 920.3125,1622.1875 C 919.62729,1612.1 917.97452,1602.1207 917.03125,1592.0625 C 917.10117,1586.9736 911.58101,1585.5165 908.125,1583.1562 C 903.12347,1580.5941 898.61569,1576.891 893.1875,1575.3125 C 888.61981,1576.811 884.44871,1579.2951 880,1581.0938 C 868.21398,1585.2644 863.68287,1598.5003 853.46875,1604.8438 C 848.42511,1607.5568 843.2128,1609.9777 838.25,1612.8438 C 837.71085,1616.4541 837.24137,1620.3405 836.76342,1623.6191 z"
      transform="matrix(0.69138, 0, 0, 0.69138, -95.1556, -268.577)"
    />
    </g>
    <g class="region" style="fill: #d3d3d3" id="south-east">
    <path
      style="fill-opacity: 1; fill-rule: nonzero; stroke: none; stroke-opacity: 1;"
      d="M 675.19298,1104.0285 C 675.19298,1104.0285 676.14363,1101.4142 676.14363,1101.4142 C 676.62856,1099.7176 677.24928,1098.0472 677.43996,1096.2937 C 676.53412,1092.4153 674.345,1089.0047 673.33483,1085.1668 C 671.96064,1078.6052 669.77519,1072.24 667.65258,1065.8946 C 664.43034,1064.8918 660.7654,1064.8065 657.8652,1063.0859 C 654.75039,1058.978 651.81763,1054.7022 649.11496,1050.3169 C 647.3126,1047.798 650.45271,1045.7683 652.48543,1044.9155 C 655.74764,1044.0009 656.39698,1049.2694 659.55051,1049.1719 C 662.03664,1049.2853 664.51607,1048.8723 666.98284,1048.5669 C 667.15638,1047.1053 667.3239,1045.6529 667.47974,1044.2025 C 662.24371,1042.0294 656.84887,1040.2162 651.83726,1037.548 C 652.82158,1033.1981 654.6565,1029.102 655.85591,1024.8223 C 656.60841,1020.4842 654.10022,1016.1737 654.92683,1011.8589 C 657.21413,1008.4785 660.34746,1005.7675 662.96413,1002.6549 C 660.92539,997.8114 658.70391,993.04586 656.22317,988.41686 C 649.81754,992.79088 643.37685,997.11919 637.16708,1001.7691 C 638.49398,1004.1337 640.7559,1006.2036 641.14251,1008.9638 C 640.00838,1011.8381 637.6637,1014.0261 635.8491,1016.4825 C 634.61706,1017.7487 633.34243,1020.11 631.24707,1019.14 C 629.38899,1016.4722 628.06002,1013.5081 626.38584,1010.7354 C 621.38184,1012.1477 616.35557,1013.5548 611.47796,1015.359 C 611.5715,1016.6317 611.48833,1017.9164 611.60994,1019.2048 C 611.60351,1022.0937 611.14748,1022.3981 607.70911,1023.7572 C 605.58304,1024.6042 600.43807,1026.5901 595.1049,1028.084 C 592.94429,1021.9312 590.37087,1014.8623 588.57599,1008.0996 C 589.72512,1005.877 592.58053,1005.5425 594.58236,1004.3617 C 592.9476,1002.0379 591.13452,999.84344 589.20256,997.77206 C 587.93328,1000.4945 586.74478,1003.2721 585.48639,1006.0038 C 582.40611,1005.7368 579.42203,1004.8927 576.47684,1004.0161 C 574.15325,1009.6727 572.535,1015.5926 570.40566,1021.3222 C 569.36647,1025.1614 565.09762,1026.3054 562.17392,1028.3656 C 560.40377,1029.6781 557.53704,1030.5042 557.39908,1033.0973 C 555.8566,1044.9229 554.67996,1056.7989 553.05635,1068.6169 C 552.86102,1071.009 552.22916,1073.589 553.38043,1075.8548 C 556.74351,1083.1645 559.94793,1090.568 563.42705,1097.8277 C 566.90616,1105.0875 565.50119,1102.1704 565.50119,1102.1704 C 565.50119,1102.1704 569.54942,1109.8119 571.01062,1113.9023 C 569.64245,1115.4555 568.2427,1117.0027 566.88395,1118.5691 C 569.20373,1122.4256 571.46435,1133.6067 571.46434,1133.6067 C 572.26968,1139.0427 571.67657,1142.0425 571.14026,1147.499 C 566.20532,1150.1118 560.75685,1151.5788 555.67063,1153.8727 C 557.20332,1164.7968 559.0437,1175.6753 560.5535,1186.6052 C 560.8626,1189.2953 561.67125,1191.9972 561.39612,1194.7289 C 560.1846,1196.6885 558.05903,1197.7805 556.25398,1199.1149 C 549.96143,1196.1968 544.26752,1192.1539 537.99723,1189.2195 C 534.52496,1188.5912 531.02178,1189.9215 527.56171,1190.235 C 529.26872,1193.6874 531.38761,1196.9054 533.46005,1200.152 C 535.42166,1200.4522 537.7085,1200.8628 539.72362,1201.2836 C 539.41989,1204.3703 538.30966,1207.5165 537.85115,1210.9186 C 538.97439,1211.2503 540.75498,1211.3897 541.72162,1211.9178 C 543.11605,1215.7856 543.98275,1221.6267 545.02005,1225.6073 C 546.6472,1225.9949 547.45857,1224.8645 548.65879,1225.8936 C 550.86705,1227.7871 552.70609,1230.2486 555.47618,1231.3721 C 558.23088,1232.507 561.19749,1233.027 564.09682,1233.6839 C 565.52897,1231.4375 566.35127,1228.5648 568.59079,1226.9861 C 573.84881,1224.8088 579.64496,1224.5149 585.07588,1222.9027 C 587.27713,1222.0613 588.47005,1219.8453 589.85073,1218.0846 C 588.53339,1214.4499 585.99676,1211.3325 585.09749,1207.5627 C 585.73728,1206.6726 586.43061,1205.8343 587.19323,1205.0564 C 595.25961,1210.5611 602.46063,1217.3561 610.67851,1222.6002 C 616.92997,1222.895 623.2693,1222.4754 629.54026,1222.1464 C 629.54026,1222.1464 632.80267,1221.3903 632.80267,1221.3903 C 639.02862,1223.8288 644.12527,1228.3593 650.23845,1231.0048 C 651.64672,1228.0048 652.91167,1224.9271 654.49472,1222.0169 C 671.40906,1218.6577 688.41984,1215.9014 705.35443,1212.64 C 705.35443,1212.64 709.02338,1211.9142 709.02338,1211.9142 C 718.27577,1215.6961 727.99139,1218.2852 737.41317,1221.6368 C 744.1506,1223.5264 750.32573,1226.4491 757.25107,1227.4615 C 761.34688,1223.5933 764.23339,1218.6759 768.03232,1214.5413 C 769.63493,1212.8592 771.99939,1212.3035 774.1251,1211.5813 C 781.22419,1209.5123 788.29355,1207.3735 795.38504,1205.2725 C 803.49665,1203.0209 807.66927,1193.7517 816.14808,1192.4171 C 816.14808,1192.4171 818.41663,1190.2134 818.41663,1190.2134 C 821.74915,1193.3865 826.44874,1194.506 830.92632,1194.7938 C 830.90614,1191.4483 829.82862,1187.8761 831.46643,1184.7471 C 832.95546,1181.5107 834.6288,1178.3484 836.1981,1175.1542 C 837.12621,1173.4447 838.0557,1171.4186 840.04383,1170.7467 C 844.91937,1168.9464 850.43237,1168.9173 854.93014,1166.1015 C 861.19867,1162.3051 867.38314,1158.3953 873.57576,1154.4776 C 875.50851,1153.6538 874.85889,1151.318 874.63447,1149.7244 C 873.35203,1143.5926 871.88651,1137.5154 870.63739,1131.3812 C 869.54626,1126.5701 873.02494,1122.3913 874.05115,1117.8778 C 866.29753,1118.8125 858.79053,1121.0942 851.08434,1122.3069 C 845.11925,1123.1977 839.24356,1125.6038 833.17331,1125.1588 C 827.79444,1121.9821 824.38566,1115.9559 818.24379,1114.0103 C 811.89021,1111.7697 805.79072,1108.7673 799.16599,1107.3774 C 793.80026,1106.2228 788.52779,1104.6702 783.15625,1103.5748 C 782.49225,1103.5495 781.6469,1103.3419 780.8877,1103.3371 C 780.12842,1103.3324 779.43946,1103.5376 779.0944,1104.3526 C 777.40612,1106.9783 776.97227,1110.5595 774.23316,1112.3899 C 770.31816,1112.0813 766.67168,1110.3575 762.80375,1109.8188 C 760.91567,1110.1027 759.34741,1111.4064 757.4672,1111.7418 C 755.11844,1110.6181 753.43168,1108.5584 751.50405,1106.8805 C 748.77794,1114.0949 746.28413,1121.3829 743.48833,1128.5725 C 742.07376,1131.9991 735.86261,1135.6654 735.86261,1135.6654 C 733.91009,1136.9969 731.86388,1135.8274 731.27614,1135.6274 C 731.27614,1135.6274 727.49325,1133.5987 724.71307,1132.3319 C 722.97031,1134.064 721.27083,1135.8489 719.50608,1137.5605 C 718.43202,1138.4449 717.33812,1140.1181 715.76827,1139.1808 C 713.69794,1137.1595 712.37553,1134.5278 710.77741,1132.159 C 708.62183,1131.8806 706.46652,1131.659 704.31736,1131.4245 C 703.56009,1129.7465 702.85924,1128.0659 702.13516,1126.3903 C 699.4645,1128.7649 697.89783,1132.9423 693.94666,1133.3258 C 693.84109,1130.1545 694.28945,1127.0352 694.42192,1123.8841 C 694.55618,1122.6156 693.16582,1122.0332 692.36942,1121.3778 C 687.18531,1118.053 682.03937,1114.6727 676.85658,1111.3528 C 673.83912,1109.4722 674.48494,1107.152 675.19298,1104.0285 z M 592.89479,1230.8786 C 593.81968,1230.1232 594.89064,1229.1925 596.18762,1229.6973 C 600.51436,1230.8948 604.54379,1232.9691 608.76571,1234.4951 C 611.77811,1235.5442 614.19669,1237.69 616.48648,1239.8425 C 614.60289,1243.1976 610.2751,1243.0933 607.75604,1245.6455 C 606.61347,1248.1181 606.79058,1250.9718 605.84226,1253.5234 C 602.30154,1255.634 598.04621,1256.1203 594.08031,1257.0286 C 591.42148,1254.3117 589.02936,1251.2322 585.73532,1249.2491 C 582.56776,1247.3372 579.43914,1245.3652 576.24191,1243.5162 C 574.04999,1242.0167 571.30274,1242.5762 568.82567,1242.4281 C 569.50504,1241.6545 570.04183,1240.7092 570.95287,1240.19 C 578.60171,1238.1875 586.8914,1236.3744 592.89479,1230.8786 z"
    />
  </g>
    <g
    id="east"
    style="fill:#d3d3d3"
    class="region"
  >
      <path
      style="fill-opacity:1;fill-rule:nonzero;stroke:none;stroke-opacity:1;stroke-width:0.10094100000000000;stroke-miterlimit:4;stroke-dasharray:none"
      d="M 896.91697,919.32209 C 897.22443,921.20824 897.92109,924.47286 898.75961,929.92777 C 899.59813,935.38268 897.74694,940.68944 896.50849,945.92746 C 893.22049,961.6313 889.49668,977.23898 886.16631,992.9348 C 885.70002,994.82567 885.36428,996.90717 883.9215,998.34795 C 877.55885,1005.0478 870.63641,1011.1907 864.37133,1017.9849 C 862.49704,1020.343 859.58873,1022.7435 857.33455,1025.3196 C 855.08037,1027.8957 852.03636,1029.9335 850.55122,1033.0875 C 850.19278,1036.3224 854.21694,1036.3347 856.32489,1037.4011 C 852.07698,1041.7529 847.85422,1046.2515 842.94859,1049.8567 C 835.42553,1051.612 827.46738,1050.2842 819.85382,1051.6863 C 818.67945,1052.1838 818.16334,1053.0741 818.3055,1054.3571 C 819.72192,1057.4453 823.63728,1059.4123 823.1705,1063.2367 C 823.06741,1067.9662 823.54043,1072.7592 822.85362,1077.4544 C 819.98973,1082.3205 816.0862,1086.4969 812.82912,1091.1062 C 811.30445,1093.0015 809.84539,1095.565 807.10087,1095.6417 C 799.76002,1096.4256 792.40301,1097.0722 785.05413,1097.7547 C 782.91836,1098.0367 780.59196,1097.6368 778.63641,1098.6859 C 776.41706,1101.9235 775.36317,1105.7945 773.37401,1109.1739 C 769.47802,1108.6076 765.78741,1107.1225 761.9051,1106.5679 C 760.35624,1106.8688 758.9838,1107.6715 757.56389,1108.3036 C 755.82884,1106.7523 754.09229,1105.2059 752.4816,1103.5404 C 755.06077,1100.0727 758.31859,1097.139 760.66667,1093.5042 C 759.62021,1088.1715 757.43604,1082.9352 754.71744,1078.2104 C 749.44223,1079.3275 744.22218,1080.6751 739.0245,1082.0955 C 737.7061,1082.3006 736.16508,1083.1106 734.97045,1082.1515 C 732.43192,1080.312 729.86546,1078.4277 727.72782,1076.1359 C 727.39305,1075.465 727.28358,1074.1415 727.10229,1072.9241 C 726.65103,1069.5854 726.6921,1069.5 722.90897,1069.7279 C 719.04167,1070.0534 715.08922,1069.4439 711.28442,1070.2263 C 704.30503,1073.8325 697.99541,1078.6567 691.00453,1082.246 C 686.47297,1083.7151 681.60932,1083.6083 676.93001,1084.3186 C 673.919,1077.8735 673.01723,1070.6703 670.03997,1064.2309 C 667.01053,1061.1172 660.96388,1063.0995 658.49489,1059.0329 C 656.15071,1055.4488 650.75146,1049.242 652.32659,1048.3281 C 653.39782,1047.1649 655.28798,1050.6822 657.00811,1051.9727 C 661.04632,1052.6612 665.46672,1051.4547 669.5221,1051.2572 C 669.5221,1051.2572 670.36417,1042.2076 670.36417,1042.2076 C 665.47205,1040.0384 660.23578,1038.1538 655.35151,1035.9771 C 656.42768,1031.9811 658.20684,1028.1958 659.06989,1024.1481 C 659.10954,1020.8063 658.01625,1017.5858 657.81278,1014.2709 C 657.4544,1012.3357 659.33999,1011.1886 660.39296,1009.8763 C 662.35644,1007.58 665.05091,1005.704 666.1228,1002.79 C 664.18016,996.45927 660.21537,990.95389 658.16419,984.66625 C 658.0809,981.76447 659.42992,979.02197 659.99408,976.2069 C 663.14092,976.77164 666.52665,977.23342 669.71815,977.53586 C 670.59055,975.13159 672.1583,971.02463 673.12282,970.41321 C 674.11633,969.11751 676.04853,968.67444 676.04853,968.67444 C 677.16578,967.98467 676.92301,966.70762 676.44387,964.39308 C 675.94815,962.47797 675.24839,960.09164 674.88072,957.90311 C 678.98422,954.70253 683.6436,952.22063 687.52422,948.7533 C 689.16968,944.47435 689.04697,939.66724 689.40009,935.12858 C 687.18614,933.53238 684.95373,931.97216 682.7627,930.35878 C 682.53066,927.73202 682.41341,925.10028 682.24556,922.47788 C 679.98099,922.18781 677.71175,921.99318 675.45459,921.72012 C 675.12397,919.52615 674.89984,917.70515 674.76323,915.49987 C 681.38206,913.03266 688.06187,908.59301 695.38535,908.97915 C 702.52015,909.07548 709.33871,908.72736 716.47536,908.84346 C 719.86269,908.86901 725.10879,910.20057 726.06676,911.34922 C 727.52613,907.14149 728.32468,902.74537 729.75598,898.53239 C 732.66243,897.95438 736.05293,897.35503 738.82341,896.94505 C 743.90244,895.90135 744.79869,893.85946 745.40913,893.28667 C 748.73552,889.59053 748.06206,889.52512 751.33304,885.78073 C 754.32024,887.03414 757.0016,888.99208 760.11222,889.9548 C 762.32895,890.16314 762.83752,887.56015 763.74561,886.06581 C 767.70187,876.87274 771.52271,867.62019 775.3838,858.38731 C 776.01937,856.9228 776.87728,854.94839 778.84934,855.30194 C 791.59339,855.21647 804.34268,855.32812 817.09054,855.26499 C 826.86168,854.7884 836.3007,857.80824 845.8845,859.20233 C 850.19453,860.27518 855.25938,859.90881 858.6689,863.21908 C 868.33263,871.34865 877.87213,879.62761 887.5438,887.75193 C 889.67722,889.66134 892.51854,891.4446 892.87658,894.56282 C 894.24561,902.80965 895.65893,911.05345 896.91697,919.32209 z"
      sodipodi:nodetypes="ccccccccccccccccccccccccccccccccccccccccccccccccccccccccccccccccccccccccc"
    />
    </g>
</svg>
